<?xml version="1.0" encoding="UTF-8" standalone="no"?>
<!DOCTYPE svg PUBLIC "-//W3C//DTD SVG 1.1//EN"
 "http://www.w3.org/Graphics/SVG/1.1/DTD/svg11.dtd">
<!-- Generated by graphviz version 10.0.1 (20240210.2158)
 -->
<!-- Title: snakemake_dag Pages: 1 -->
<svg width="117pt" height="260pt"
 viewBox="0.00 0.00 117.00 260.00" xmlns="http://www.w3.org/2000/svg" xmlns:xlink="http://www.w3.org/1999/xlink">
<g id="graph0" class="graph" transform="scale(1 1) rotate(0) translate(4 256)">
<title>snakemake_dag</title>
<polygon fill="white" stroke="none" points="-4,4 -4,-256 113,-256 113,4 -4,4"/>
<!-- 0 -->
<g id="node1" class="node">
<title>0</title>
<path fill="none" stroke="#56d8d8" stroke-width="2" d="M69.5,-36C69.5,-36 39.5,-36 39.5,-36 33.5,-36 27.5,-30 27.5,-24 27.5,-24 27.5,-12 27.5,-12 27.5,-6 33.5,0 39.5,0 39.5,0 69.5,0 69.5,0 75.5,0 81.5,-6 81.5,-12 81.5,-12 81.5,-24 81.5,-24 81.5,-30 75.5,-36 69.5,-36"/>
<text text-anchor="middle" x="54.5" y="-14.12" font-family="sans" font-size="10.00">all</text>
</g>
<!-- 1 -->
<g id="node2" class="node">
<title>1</title>
<path fill="none" stroke="#d6d856" stroke-width="2" d="M69.5,-108C69.5,-108 39.5,-108 39.5,-108 33.5,-108 27.5,-102 27.5,-96 27.5,-96 27.5,-84 27.5,-84 27.5,-78 33.5,-72 39.5,-72 39.5,-72 69.5,-72 69.5,-72 75.5,-72 81.5,-78 81.5,-84 81.5,-84 81.5,-96 81.5,-96 81.5,-102 75.5,-108 69.5,-108"/>
<text text-anchor="middle" x="54.5" y="-86.12" font-family="sans" font-size="10.00">sort</text>
</g>
<!-- 1&#45;&gt;0 -->
<g id="edge1" class="edge">
<title>1&#45;&gt;0</title>
<path fill="none" stroke="grey" stroke-width="2" d="M54.5,-71.34C54.5,-64.75 54.5,-57.08 54.5,-49.67"/>
<polygon fill="grey" stroke="grey" stroke-width="2" points="58,-49.93 54.5,-39.93 51,-49.93 58,-49.93"/>
</g>
<!-- 2 -->
<g id="node3" class="node">
<title>2</title>
<path fill="none" stroke="#59d856" stroke-width="2" d="M82.38,-180C82.38,-180 26.62,-180 26.62,-180 20.62,-180 14.62,-174 14.62,-168 14.62,-168 14.62,-156 14.62,-156 14.62,-150 20.62,-144 26.62,-144 26.62,-144 82.38,-144 82.38,-144 88.38,-144 94.38,-150 94.38,-156 94.38,-156 94.38,-168 94.38,-168 94.38,-174 88.38,-180 82.38,-180"/>
<text text-anchor="middle" x="54.5" y="-158.12" font-family="sans" font-size="10.00">execute_metal</text>
</g>
<!-- 2&#45;&gt;1 -->
<g id="edge2" class="edge">
<title>2&#45;&gt;1</title>
<path fill="none" stroke="grey" stroke-width="2" d="M54.5,-143.34C54.5,-136.75 54.5,-129.08 54.5,-121.67"/>
<polygon fill="grey" stroke="grey" stroke-width="2" points="58,-121.93 54.5,-111.93 51,-121.93 58,-121.93"/>
</g>
<!-- 3 -->
<g id="node4" class="node">
<title>3</title>
<path fill="none" stroke="#d85656" stroke-width="2" d="M97,-252C97,-252 12,-252 12,-252 6,-252 0,-246 0,-240 0,-240 0,-228 0,-228 0,-222 6,-216 12,-216 12,-216 97,-216 97,-216 103,-216 109,-222 109,-228 109,-228 109,-240 109,-240 109,-246 103,-252 97,-252"/>
<text text-anchor="middle" x="54.5" y="-235.75" font-family="sans" font-size="10.00">create_profiles</text>
<text text-anchor="middle" x="54.5" y="-224.5" font-family="sans" font-size="10.00">seqid: seq.10015.119</text>
</g>
<!-- 3&#45;&gt;2 -->
<g id="edge3" class="edge">
<title>3&#45;&gt;2</title>
<path fill="none" stroke="grey" stroke-width="2" d="M54.5,-215.34C54.5,-208.75 54.5,-201.08 54.5,-193.67"/>
<polygon fill="grey" stroke="grey" stroke-width="2" points="58,-193.93 54.5,-183.93 51,-193.93 58,-193.93"/>
</g>
</g>
</svg>
