<?xml version="1.0" encoding="UTF-8" standalone="no"?>
<!DOCTYPE svg PUBLIC "-//W3C//DTD SVG 1.1//EN"
 "http://www.w3.org/Graphics/SVG/1.1/DTD/svg11.dtd">
<!-- Generated by graphviz version 10.0.1 (20240210.2158)
 -->
<!-- Title: snakemake_dag Pages: 1 -->
<svg width="466pt" height="476pt"
 viewBox="0.00 0.00 466.25 476.00" xmlns="http://www.w3.org/2000/svg" xmlns:xlink="http://www.w3.org/1999/xlink">
<g id="graph0" class="graph" transform="scale(1 1) rotate(0) translate(4 472)">
<title>snakemake_dag</title>
<polygon fill="white" stroke="none" points="-4,4 -4,-472 462.25,-472 462.25,4 -4,4"/>
<!-- 0 -->
<g id="node1" class="node">
<title>0</title>
<path fill="none" stroke="#d8bc56" stroke-width="2" d="M235.62,-36C235.62,-36 205.62,-36 205.62,-36 199.62,-36 193.62,-30 193.62,-24 193.62,-24 193.62,-12 193.62,-12 193.62,-6 199.62,0 205.62,0 205.62,0 235.62,0 235.62,0 241.62,0 247.62,-6 247.62,-12 247.62,-12 247.62,-24 247.62,-24 247.62,-30 241.62,-36 235.62,-36"/>
<text text-anchor="middle" x="220.62" y="-14.12" font-family="sans" font-size="10.00">all</text>
</g>
<!-- 1 -->
<g id="node2" class="node">
<title>1</title>
<path fill="none" stroke="#d85656" stroke-width="2" d="M155.5,-108C155.5,-108 75.75,-108 75.75,-108 69.75,-108 63.75,-102 63.75,-96 63.75,-96 63.75,-84 63.75,-84 63.75,-78 69.75,-72 75.75,-72 75.75,-72 155.5,-72 155.5,-72 161.5,-72 167.5,-78 167.5,-84 167.5,-84 167.5,-96 167.5,-96 167.5,-102 161.5,-108 155.5,-108"/>
<text text-anchor="middle" x="115.62" y="-86.12" font-family="sans" font-size="10.00">sync_outputs_folder</text>
</g>
<!-- 1&#45;&gt;0 -->
<g id="edge1" class="edge">
<title>1&#45;&gt;0</title>
<path fill="none" stroke="grey" stroke-width="2" d="M142.39,-71.15C154.86,-62.84 169.89,-52.82 183.44,-43.79"/>
<polygon fill="grey" stroke="grey" stroke-width="2" points="185.01,-46.95 191.39,-38.49 181.13,-41.13 185.01,-46.95"/>
</g>
<!-- 2 -->
<g id="node3" class="node">
<title>2</title>
<path fill="none" stroke="#88d856" stroke-width="2" d="M148.75,-252C148.75,-252 106.5,-252 106.5,-252 100.5,-252 94.5,-246 94.5,-240 94.5,-240 94.5,-228 94.5,-228 94.5,-222 100.5,-216 106.5,-216 106.5,-216 148.75,-216 148.75,-216 154.75,-216 160.75,-222 160.75,-228 160.75,-228 160.75,-240 160.75,-240 160.75,-246 154.75,-252 148.75,-252"/>
<text text-anchor="middle" x="127.62" y="-230.12" font-family="sans" font-size="10.00">standardize</text>
</g>
<!-- 2&#45;&gt;1 -->
<g id="edge6" class="edge">
<title>2&#45;&gt;1</title>
<path fill="none" stroke="grey" stroke-width="2" d="M120.38,-215.19C116.65,-205.06 112.51,-192.03 110.62,-180 107.6,-160.7 108.78,-138.79 110.75,-121.54"/>
<polygon fill="grey" stroke="grey" stroke-width="2" points="114.19,-122.21 112.03,-111.84 107.25,-121.29 114.19,-122.21"/>
</g>
<!-- 12 -->
<g id="node13" class="node">
<title>12</title>
<path fill="none" stroke="#56d88a" stroke-width="2" d="M349.88,-180C349.88,-180 239.38,-180 239.38,-180 233.38,-180 227.38,-174 227.38,-168 227.38,-168 227.38,-156 227.38,-156 227.38,-150 233.38,-144 239.38,-144 239.38,-144 349.88,-144 349.88,-144 355.88,-144 361.88,-150 361.88,-156 361.88,-156 361.88,-168 361.88,-168 361.88,-174 355.88,-180 349.88,-180"/>
<text text-anchor="middle" x="294.62" y="-158.12" font-family="sans" font-size="10.00">generate_min_pvalue_table</text>
</g>
<!-- 2&#45;&gt;12 -->
<g id="edge16" class="edge">
<title>2&#45;&gt;12</title>
<path fill="none" stroke="grey" stroke-width="2" d="M161.42,-218.83C183.96,-209.38 214.11,-196.75 240.02,-185.89"/>
<polygon fill="grey" stroke="grey" stroke-width="2" points="241.3,-189.15 249.17,-182.05 238.6,-182.69 241.3,-189.15"/>
</g>
<!-- 13 -->
<g id="node14" class="node">
<title>13</title>
<path fill="none" stroke="#568ad8" stroke-width="2" d="M197.75,-180C197.75,-180 131.5,-180 131.5,-180 125.5,-180 119.5,-174 119.5,-168 119.5,-168 119.5,-156 119.5,-156 119.5,-150 125.5,-144 131.5,-144 131.5,-144 197.75,-144 197.75,-144 203.75,-144 209.75,-150 209.75,-156 209.75,-156 209.75,-168 209.75,-168 209.75,-174 203.75,-180 197.75,-180"/>
<text text-anchor="middle" x="164.62" y="-158.12" font-family="sans" font-size="10.00">generate_if_table</text>
</g>
<!-- 2&#45;&gt;13 -->
<g id="edge18" class="edge">
<title>2&#45;&gt;13</title>
<path fill="none" stroke="grey" stroke-width="2" d="M136.96,-215.34C140.66,-208.34 145.01,-200.12 149.15,-192.28"/>
<polygon fill="grey" stroke="grey" stroke-width="2" points="152.17,-194.05 153.75,-183.58 145.98,-190.78 152.17,-194.05"/>
</g>
<!-- 14 -->
<g id="node15" class="node">
<title>14</title>
<path fill="none" stroke="#56c1d8" stroke-width="2" d="M51.25,-180C51.25,-180 12,-180 12,-180 6,-180 0,-174 0,-168 0,-168 0,-156 0,-156 0,-150 6,-144 12,-144 12,-144 51.25,-144 51.25,-144 57.25,-144 63.25,-150 63.25,-156 63.25,-156 63.25,-168 63.25,-168 63.25,-174 57.25,-180 51.25,-180"/>
<text text-anchor="middle" x="31.62" y="-158.12" font-family="sans" font-size="10.00">sync_plots</text>
</g>
<!-- 2&#45;&gt;14 -->
<g id="edge20" class="edge">
<title>2&#45;&gt;14</title>
<path fill="none" stroke="grey" stroke-width="2" d="M103.15,-215.15C91.98,-207.01 78.55,-197.22 66.36,-188.33"/>
<polygon fill="grey" stroke="grey" stroke-width="2" points="68.64,-185.66 58.5,-182.6 64.52,-191.32 68.64,-185.66"/>
</g>
<!-- 3 -->
<g id="node4" class="node">
<title>3</title>
<path fill="none" stroke="#59d856" stroke-width="2" d="M154.38,-324C154.38,-324 100.88,-324 100.88,-324 94.88,-324 88.88,-318 88.88,-312 88.88,-312 88.88,-300 88.88,-300 88.88,-294 94.88,-288 100.88,-288 100.88,-288 154.38,-288 154.38,-288 160.38,-288 166.38,-294 166.38,-300 166.38,-300 166.38,-312 166.38,-312 166.38,-318 160.38,-324 154.38,-324"/>
<text text-anchor="middle" x="127.62" y="-302.12" font-family="sans" font-size="10.00">sort_and_filter</text>
</g>
<!-- 3&#45;&gt;2 -->
<g id="edge7" class="edge">
<title>3&#45;&gt;2</title>
<path fill="none" stroke="grey" stroke-width="2" d="M127.62,-287.34C127.62,-280.75 127.62,-273.08 127.62,-265.67"/>
<polygon fill="grey" stroke="grey" stroke-width="2" points="131.13,-265.93 127.63,-255.93 124.13,-265.93 131.13,-265.93"/>
</g>
<!-- 4 -->
<g id="node5" class="node">
<title>4</title>
<path fill="none" stroke="#56d8c1" stroke-width="2" d="M155.5,-396C155.5,-396 99.75,-396 99.75,-396 93.75,-396 87.75,-390 87.75,-384 87.75,-384 87.75,-372 87.75,-372 87.75,-366 93.75,-360 99.75,-360 99.75,-360 155.5,-360 155.5,-360 161.5,-360 167.5,-366 167.5,-372 167.5,-372 167.5,-384 167.5,-384 167.5,-390 161.5,-396 155.5,-396"/>
<text text-anchor="middle" x="127.62" y="-374.12" font-family="sans" font-size="10.00">execute_metal</text>
</g>
<!-- 4&#45;&gt;3 -->
<g id="edge8" class="edge">
<title>4&#45;&gt;3</title>
<path fill="none" stroke="grey" stroke-width="2" d="M127.62,-359.34C127.62,-352.75 127.62,-345.08 127.62,-337.67"/>
<polygon fill="grey" stroke="grey" stroke-width="2" points="131.13,-337.93 127.63,-327.93 124.13,-337.93 131.13,-337.93"/>
</g>
<!-- 5 -->
<g id="node6" class="node">
<title>5</title>
<path fill="none" stroke="#bed856" stroke-width="2" d="M162.25,-468C162.25,-468 93,-468 93,-468 87,-468 81,-462 81,-456 81,-456 81,-444 81,-444 81,-438 87,-432 93,-432 93,-432 162.25,-432 162.25,-432 168.25,-432 174.25,-438 174.25,-444 174.25,-444 174.25,-456 174.25,-456 174.25,-462 168.25,-468 162.25,-468"/>
<text text-anchor="middle" x="127.62" y="-451.75" font-family="sans" font-size="10.00">create_profiles</text>
<text text-anchor="middle" x="127.62" y="-440.5" font-family="sans" font-size="10.00">seqid: seq.0000.0</text>
</g>
<!-- 5&#45;&gt;4 -->
<g id="edge9" class="edge">
<title>5&#45;&gt;4</title>
<path fill="none" stroke="grey" stroke-width="2" d="M127.62,-431.34C127.62,-424.75 127.62,-417.08 127.62,-409.67"/>
<polygon fill="grey" stroke="grey" stroke-width="2" points="131.13,-409.93 127.63,-399.93 124.13,-409.93 131.13,-409.93"/>
</g>
<!-- 6 -->
<g id="node7" class="node">
<title>6</title>
<path fill="none" stroke="#d85656" stroke-width="2" d="M364.5,-108C364.5,-108 284.75,-108 284.75,-108 278.75,-108 272.75,-102 272.75,-96 272.75,-96 272.75,-84 272.75,-84 272.75,-78 278.75,-72 284.75,-72 284.75,-72 364.5,-72 364.5,-72 370.5,-72 376.5,-78 376.5,-84 376.5,-84 376.5,-96 376.5,-96 376.5,-102 370.5,-108 364.5,-108"/>
<text text-anchor="middle" x="324.62" y="-86.12" font-family="sans" font-size="10.00">sync_outputs_folder</text>
</g>
<!-- 6&#45;&gt;0 -->
<g id="edge2" class="edge">
<title>6&#45;&gt;0</title>
<path fill="none" stroke="grey" stroke-width="2" d="M298.11,-71.15C285.89,-62.93 271.17,-53.02 257.85,-44.06"/>
<polygon fill="grey" stroke="grey" stroke-width="2" points="259.85,-41.18 249.6,-38.5 255.94,-46.99 259.85,-41.18"/>
</g>
<!-- 7 -->
<g id="node8" class="node">
<title>7</title>
<path fill="none" stroke="#88d856" stroke-width="2" d="M362.75,-252C362.75,-252 320.5,-252 320.5,-252 314.5,-252 308.5,-246 308.5,-240 308.5,-240 308.5,-228 308.5,-228 308.5,-222 314.5,-216 320.5,-216 320.5,-216 362.75,-216 362.75,-216 368.75,-216 374.75,-222 374.75,-228 374.75,-228 374.75,-240 374.75,-240 374.75,-246 368.75,-252 362.75,-252"/>
<text text-anchor="middle" x="341.62" y="-230.12" font-family="sans" font-size="10.00">standardize</text>
</g>
<!-- 7&#45;&gt;6 -->
<g id="edge10" class="edge">
<title>7&#45;&gt;6</title>
<path fill="none" stroke="grey" stroke-width="2" d="M354.64,-215.12C366.12,-197.03 379.72,-168.36 370.62,-144 367.13,-134.64 361.15,-125.83 354.63,-118.19"/>
<polygon fill="grey" stroke="grey" stroke-width="2" points="357.38,-115.99 348,-111.07 352.26,-120.77 357.38,-115.99"/>
</g>
<!-- 7&#45;&gt;12 -->
<g id="edge17" class="edge">
<title>7&#45;&gt;12</title>
<path fill="none" stroke="grey" stroke-width="2" d="M329.76,-215.34C324.9,-208.1 319.15,-199.53 313.73,-191.45"/>
<polygon fill="grey" stroke="grey" stroke-width="2" points="316.81,-189.77 308.33,-183.41 311,-193.67 316.81,-189.77"/>
</g>
<!-- 7&#45;&gt;13 -->
<g id="edge19" class="edge">
<title>7&#45;&gt;13</title>
<path fill="none" stroke="grey" stroke-width="2" d="M307.92,-219.67C283.61,-210.05 250.2,-196.84 221.76,-185.6"/>
<polygon fill="grey" stroke="grey" stroke-width="2" points="223.32,-182.45 212.73,-182.02 220.74,-188.96 223.32,-182.45"/>
</g>
<!-- 15 -->
<g id="node16" class="node">
<title>15</title>
<path fill="none" stroke="#56c1d8" stroke-width="2" d="M446.25,-108C446.25,-108 407,-108 407,-108 401,-108 395,-102 395,-96 395,-96 395,-84 395,-84 395,-78 401,-72 407,-72 407,-72 446.25,-72 446.25,-72 452.25,-72 458.25,-78 458.25,-84 458.25,-84 458.25,-96 458.25,-96 458.25,-102 452.25,-108 446.25,-108"/>
<text text-anchor="middle" x="426.62" y="-86.12" font-family="sans" font-size="10.00">sync_plots</text>
</g>
<!-- 7&#45;&gt;15 -->
<g id="edge21" class="edge">
<title>7&#45;&gt;15</title>
<path fill="none" stroke="grey" stroke-width="2" d="M358.35,-215.27C367.15,-205.37 377.72,-192.55 385.62,-180 397.45,-161.24 407.86,-138.51 415.24,-120.71"/>
<polygon fill="grey" stroke="grey" stroke-width="2" points="418.43,-122.15 418.91,-111.56 411.94,-119.54 418.43,-122.15"/>
</g>
<!-- 8 -->
<g id="node9" class="node">
<title>8</title>
<path fill="none" stroke="#59d856" stroke-width="2" d="M368.38,-324C368.38,-324 314.88,-324 314.88,-324 308.88,-324 302.88,-318 302.88,-312 302.88,-312 302.88,-300 302.88,-300 302.88,-294 308.88,-288 314.88,-288 314.88,-288 368.38,-288 368.38,-288 374.38,-288 380.38,-294 380.38,-300 380.38,-300 380.38,-312 380.38,-312 380.38,-318 374.38,-324 368.38,-324"/>
<text text-anchor="middle" x="341.62" y="-302.12" font-family="sans" font-size="10.00">sort_and_filter</text>
</g>
<!-- 8&#45;&gt;7 -->
<g id="edge11" class="edge">
<title>8&#45;&gt;7</title>
<path fill="none" stroke="grey" stroke-width="2" d="M341.62,-287.34C341.62,-280.75 341.62,-273.08 341.62,-265.67"/>
<polygon fill="grey" stroke="grey" stroke-width="2" points="345.13,-265.93 341.63,-255.93 338.13,-265.93 345.13,-265.93"/>
</g>
<!-- 9 -->
<g id="node10" class="node">
<title>9</title>
<path fill="none" stroke="#56d8c1" stroke-width="2" d="M369.5,-396C369.5,-396 313.75,-396 313.75,-396 307.75,-396 301.75,-390 301.75,-384 301.75,-384 301.75,-372 301.75,-372 301.75,-366 307.75,-360 313.75,-360 313.75,-360 369.5,-360 369.5,-360 375.5,-360 381.5,-366 381.5,-372 381.5,-372 381.5,-384 381.5,-384 381.5,-390 375.5,-396 369.5,-396"/>
<text text-anchor="middle" x="341.62" y="-374.12" font-family="sans" font-size="10.00">execute_metal</text>
</g>
<!-- 9&#45;&gt;8 -->
<g id="edge12" class="edge">
<title>9&#45;&gt;8</title>
<path fill="none" stroke="grey" stroke-width="2" d="M341.62,-359.34C341.62,-352.75 341.62,-345.08 341.62,-337.67"/>
<polygon fill="grey" stroke="grey" stroke-width="2" points="345.13,-337.93 341.63,-327.93 338.13,-337.93 345.13,-337.93"/>
</g>
<!-- 10 -->
<g id="node11" class="node">
<title>10</title>
<path fill="none" stroke="#bed856" stroke-width="2" d="M376.25,-468C376.25,-468 307,-468 307,-468 301,-468 295,-462 295,-456 295,-456 295,-444 295,-444 295,-438 301,-432 307,-432 307,-432 376.25,-432 376.25,-432 382.25,-432 388.25,-438 388.25,-444 388.25,-444 388.25,-456 388.25,-456 388.25,-462 382.25,-468 376.25,-468"/>
<text text-anchor="middle" x="341.62" y="-451.75" font-family="sans" font-size="10.00">create_profiles</text>
<text text-anchor="middle" x="341.62" y="-440.5" font-family="sans" font-size="10.00">seqid: seq.0001.0</text>
</g>
<!-- 10&#45;&gt;9 -->
<g id="edge13" class="edge">
<title>10&#45;&gt;9</title>
<path fill="none" stroke="grey" stroke-width="2" d="M341.62,-431.34C341.62,-424.75 341.62,-417.08 341.62,-409.67"/>
<polygon fill="grey" stroke="grey" stroke-width="2" points="345.13,-409.93 341.63,-399.93 338.13,-409.93 345.13,-409.93"/>
</g>
<!-- 11 -->
<g id="node12" class="node">
<title>11</title>
<path fill="none" stroke="#d88d56" stroke-width="2" d="M242.88,-108C242.88,-108 198.38,-108 198.38,-108 192.38,-108 186.38,-102 186.38,-96 186.38,-96 186.38,-84 186.38,-84 186.38,-78 192.38,-72 198.38,-72 198.38,-72 242.88,-72 242.88,-72 248.88,-72 254.88,-78 254.88,-84 254.88,-84 254.88,-96 254.88,-96 254.88,-102 248.88,-108 242.88,-108"/>
<text text-anchor="middle" x="220.62" y="-86.12" font-family="sans" font-size="10.00">sync_tables</text>
</g>
<!-- 11&#45;&gt;0 -->
<g id="edge3" class="edge">
<title>11&#45;&gt;0</title>
<path fill="none" stroke="grey" stroke-width="2" d="M220.62,-71.34C220.62,-64.75 220.62,-57.08 220.62,-49.67"/>
<polygon fill="grey" stroke="grey" stroke-width="2" points="224.13,-49.93 220.63,-39.93 217.13,-49.93 224.13,-49.93"/>
</g>
<!-- 12&#45;&gt;11 -->
<g id="edge14" class="edge">
<title>12&#45;&gt;11</title>
<path fill="none" stroke="grey" stroke-width="2" d="M275.95,-143.34C267.78,-135.6 258,-126.36 248.96,-117.81"/>
<polygon fill="grey" stroke="grey" stroke-width="2" points="251.42,-115.31 241.75,-110.98 246.61,-120.4 251.42,-115.31"/>
</g>
<!-- 13&#45;&gt;11 -->
<g id="edge15" class="edge">
<title>13&#45;&gt;11</title>
<path fill="none" stroke="grey" stroke-width="2" d="M178.76,-143.34C184.68,-135.93 191.71,-127.14 198.3,-118.9"/>
<polygon fill="grey" stroke="grey" stroke-width="2" points="200.9,-121.26 204.41,-111.27 195.43,-116.89 200.9,-121.26"/>
</g>
<!-- 14&#45;&gt;0 -->
<g id="edge4" class="edge">
<title>14&#45;&gt;0</title>
<path fill="none" stroke="grey" stroke-width="2" d="M31.39,-143.23C32.11,-123.34 36.32,-91.37 54.62,-72 87.35,-37.39 142.6,-25.3 180.3,-21.13"/>
<polygon fill="grey" stroke="grey" stroke-width="2" points="180.2,-24.65 189.83,-20.24 179.54,-17.68 180.2,-24.65"/>
</g>
<!-- 15&#45;&gt;0 -->
<g id="edge5" class="edge">
<title>15&#45;&gt;0</title>
<path fill="none" stroke="grey" stroke-width="2" d="M394.05,-75.21C391.21,-74.09 388.37,-73.01 385.62,-72 343.43,-56.5 294.28,-41.04 260.67,-30.85"/>
<polygon fill="grey" stroke="grey" stroke-width="2" points="262.08,-27.62 251.5,-28.09 260.06,-34.33 262.08,-27.62"/>
</g>
</g>
</svg>
