<?xml version="1.0" encoding="UTF-8" standalone="no"?>
<!DOCTYPE svg PUBLIC "-//W3C//DTD SVG 1.1//EN"
 "http://www.w3.org/Graphics/SVG/1.1/DTD/svg11.dtd">
<!-- Generated by graphviz version 10.0.1 (20240210.2158)
 -->
<!-- Title: snakemake_dag Pages: 1 -->
<svg width="495pt" height="548pt"
 viewBox="0.00 0.00 495.25 548.00" xmlns="http://www.w3.org/2000/svg" xmlns:xlink="http://www.w3.org/1999/xlink">
<g id="graph0" class="graph" transform="scale(1 1) rotate(0) translate(4 544)">
<title>snakemake_dag</title>
<polygon fill="white" stroke="none" points="-4,4 -4,-544 491.25,-544 491.25,4 -4,4"/>
<!-- 0 -->
<g id="node1" class="node">
<title>0</title>
<path fill="none" stroke="#5682d8" stroke-width="2" d="M222.62,-36C222.62,-36 192.62,-36 192.62,-36 186.62,-36 180.62,-30 180.62,-24 180.62,-24 180.62,-12 180.62,-12 180.62,-6 186.62,0 192.62,0 192.62,0 222.62,0 222.62,0 228.62,0 234.62,-6 234.62,-12 234.62,-12 234.62,-24 234.62,-24 234.62,-30 228.62,-36 222.62,-36"/>
<text text-anchor="middle" x="207.62" y="-14.12" font-family="sans" font-size="10.00">all</text>
</g>
<!-- 1 -->
<g id="node2" class="node">
<title>1</title>
<path fill="none" stroke="#56d86b" stroke-width="2" d="M125.5,-180C125.5,-180 45.75,-180 45.75,-180 39.75,-180 33.75,-174 33.75,-168 33.75,-168 33.75,-156 33.75,-156 33.75,-150 39.75,-144 45.75,-144 45.75,-144 125.5,-144 125.5,-144 131.5,-144 137.5,-150 137.5,-156 137.5,-156 137.5,-168 137.5,-168 137.5,-174 131.5,-180 125.5,-180"/>
<text text-anchor="middle" x="85.62" y="-158.12" font-family="sans" font-size="10.00">sync_outputs_folder</text>
</g>
<!-- 1&#45;&gt;0 -->
<g id="edge1" class="edge">
<title>1&#45;&gt;0</title>
<path fill="none" stroke="grey" stroke-width="2" d="M101.08,-143.02C121.98,-118.69 159.45,-75.07 183.93,-46.58"/>
<polygon fill="grey" stroke="grey" stroke-width="2" points="186.46,-49 190.33,-39.13 181.15,-44.44 186.46,-49"/>
</g>
<!-- 2 -->
<g id="node3" class="node">
<title>2</title>
<path fill="none" stroke="#d88556" stroke-width="2" d="M164.75,-252C164.75,-252 122.5,-252 122.5,-252 116.5,-252 110.5,-246 110.5,-240 110.5,-240 110.5,-228 110.5,-228 110.5,-222 116.5,-216 122.5,-216 122.5,-216 164.75,-216 164.75,-216 170.75,-216 176.75,-222 176.75,-228 176.75,-228 176.75,-240 176.75,-240 176.75,-246 170.75,-252 164.75,-252"/>
<text text-anchor="middle" x="143.62" y="-230.12" font-family="sans" font-size="10.00">standardize</text>
</g>
<!-- 2&#45;&gt;1 -->
<g id="edge6" class="edge">
<title>2&#45;&gt;1</title>
<path fill="none" stroke="grey" stroke-width="2" d="M128.99,-215.34C122.85,-207.93 115.57,-199.14 108.74,-190.9"/>
<polygon fill="grey" stroke="grey" stroke-width="2" points="111.46,-188.7 102.39,-183.23 106.07,-193.17 111.46,-188.7"/>
</g>
<!-- 14 -->
<g id="node15" class="node">
<title>14</title>
<path fill="none" stroke="#ced856" stroke-width="2" d="M385.88,-180C385.88,-180 275.38,-180 275.38,-180 269.38,-180 263.38,-174 263.38,-168 263.38,-168 263.38,-156 263.38,-156 263.38,-150 269.38,-144 275.38,-144 275.38,-144 385.88,-144 385.88,-144 391.88,-144 397.88,-150 397.88,-156 397.88,-156 397.88,-168 397.88,-168 397.88,-174 391.88,-180 385.88,-180"/>
<text text-anchor="middle" x="330.62" y="-158.12" font-family="sans" font-size="10.00">generate_min_pvalue_table</text>
</g>
<!-- 2&#45;&gt;14 -->
<g id="edge18" class="edge">
<title>2&#45;&gt;14</title>
<path fill="none" stroke="grey" stroke-width="2" d="M177.49,-220.32C203.41,-210.62 239.83,-196.99 270.65,-185.45"/>
<polygon fill="grey" stroke="grey" stroke-width="2" points="271.62,-188.83 279.76,-182.04 269.16,-182.27 271.62,-188.83"/>
</g>
<!-- 15 -->
<g id="node16" class="node">
<title>15</title>
<path fill="none" stroke="#56b1d8" stroke-width="2" d="M233.75,-180C233.75,-180 167.5,-180 167.5,-180 161.5,-180 155.5,-174 155.5,-168 155.5,-168 155.5,-156 155.5,-156 155.5,-150 161.5,-144 167.5,-144 167.5,-144 233.75,-144 233.75,-144 239.75,-144 245.75,-150 245.75,-156 245.75,-156 245.75,-168 245.75,-168 245.75,-174 239.75,-180 233.75,-180"/>
<text text-anchor="middle" x="200.62" y="-158.12" font-family="sans" font-size="10.00">generate_if_table</text>
</g>
<!-- 2&#45;&gt;15 -->
<g id="edge20" class="edge">
<title>2&#45;&gt;15</title>
<path fill="none" stroke="grey" stroke-width="2" d="M158.01,-215.34C164.04,-207.93 171.19,-199.14 177.9,-190.9"/>
<polygon fill="grey" stroke="grey" stroke-width="2" points="180.54,-193.21 184.14,-183.25 175.11,-188.79 180.54,-193.21"/>
</g>
<!-- 16 -->
<g id="node17" class="node">
<title>16</title>
<path fill="none" stroke="#70d856" stroke-width="2" d="M51.25,-108C51.25,-108 12,-108 12,-108 6,-108 0,-102 0,-96 0,-96 0,-84 0,-84 0,-78 6,-72 12,-72 12,-72 51.25,-72 51.25,-72 57.25,-72 63.25,-78 63.25,-84 63.25,-84 63.25,-96 63.25,-96 63.25,-102 57.25,-108 51.25,-108"/>
<text text-anchor="middle" x="31.62" y="-86.12" font-family="sans" font-size="10.00">sync_plots</text>
</g>
<!-- 2&#45;&gt;16 -->
<g id="edge22" class="edge">
<title>2&#45;&gt;16</title>
<path fill="none" stroke="grey" stroke-width="2" d="M109.65,-228.08C81.54,-222.02 43.28,-208.74 24.62,-180 13.49,-162.85 15.69,-139.73 20.44,-121.35"/>
<polygon fill="grey" stroke="grey" stroke-width="2" points="23.77,-122.44 23.32,-111.86 17.07,-120.41 23.77,-122.44"/>
</g>
<!-- 3 -->
<g id="node4" class="node">
<title>3</title>
<path fill="none" stroke="#d85656" stroke-width="2" d="M158.62,-324C158.62,-324 128.62,-324 128.62,-324 122.62,-324 116.62,-318 116.62,-312 116.62,-312 116.62,-300 116.62,-300 116.62,-294 122.62,-288 128.62,-288 128.62,-288 158.62,-288 158.62,-288 164.62,-288 170.62,-294 170.62,-300 170.62,-300 170.62,-312 170.62,-312 170.62,-318 164.62,-324 158.62,-324"/>
<text text-anchor="middle" x="143.62" y="-302.12" font-family="sans" font-size="10.00">filter</text>
</g>
<!-- 3&#45;&gt;2 -->
<g id="edge7" class="edge">
<title>3&#45;&gt;2</title>
<path fill="none" stroke="grey" stroke-width="2" d="M143.62,-287.34C143.62,-280.75 143.62,-273.08 143.62,-265.67"/>
<polygon fill="grey" stroke="grey" stroke-width="2" points="147.13,-265.93 143.63,-255.93 140.13,-265.93 147.13,-265.93"/>
</g>
<!-- 4 -->
<g id="node5" class="node">
<title>4</title>
<path fill="none" stroke="#9fd856" stroke-width="2" d="M158.62,-396C158.62,-396 128.62,-396 128.62,-396 122.62,-396 116.62,-390 116.62,-384 116.62,-384 116.62,-372 116.62,-372 116.62,-366 122.62,-360 128.62,-360 128.62,-360 158.62,-360 158.62,-360 164.62,-360 170.62,-366 170.62,-372 170.62,-372 170.62,-384 170.62,-384 170.62,-390 164.62,-396 158.62,-396"/>
<text text-anchor="middle" x="143.62" y="-374.12" font-family="sans" font-size="10.00">sort</text>
</g>
<!-- 4&#45;&gt;3 -->
<g id="edge8" class="edge">
<title>4&#45;&gt;3</title>
<path fill="none" stroke="grey" stroke-width="2" d="M143.62,-359.34C143.62,-352.75 143.62,-345.08 143.62,-337.67"/>
<polygon fill="grey" stroke="grey" stroke-width="2" points="147.13,-337.93 143.63,-327.93 140.13,-337.93 147.13,-337.93"/>
</g>
<!-- 5 -->
<g id="node6" class="node">
<title>5</title>
<path fill="none" stroke="#56d89a" stroke-width="2" d="M171.5,-468C171.5,-468 115.75,-468 115.75,-468 109.75,-468 103.75,-462 103.75,-456 103.75,-456 103.75,-444 103.75,-444 103.75,-438 109.75,-432 115.75,-432 115.75,-432 171.5,-432 171.5,-432 177.5,-432 183.5,-438 183.5,-444 183.5,-444 183.5,-456 183.5,-456 183.5,-462 177.5,-468 171.5,-468"/>
<text text-anchor="middle" x="143.62" y="-446.12" font-family="sans" font-size="10.00">execute_metal</text>
</g>
<!-- 5&#45;&gt;4 -->
<g id="edge9" class="edge">
<title>5&#45;&gt;4</title>
<path fill="none" stroke="grey" stroke-width="2" d="M143.62,-431.34C143.62,-424.75 143.62,-417.08 143.62,-409.67"/>
<polygon fill="grey" stroke="grey" stroke-width="2" points="147.13,-409.93 143.63,-399.93 140.13,-409.93 147.13,-409.93"/>
</g>
<!-- 6 -->
<g id="node7" class="node">
<title>6</title>
<path fill="none" stroke="#56d8c9" stroke-width="2" d="M178.25,-540C178.25,-540 109,-540 109,-540 103,-540 97,-534 97,-528 97,-528 97,-516 97,-516 97,-510 103,-504 109,-504 109,-504 178.25,-504 178.25,-504 184.25,-504 190.25,-510 190.25,-516 190.25,-516 190.25,-528 190.25,-528 190.25,-534 184.25,-540 178.25,-540"/>
<text text-anchor="middle" x="143.62" y="-523.75" font-family="sans" font-size="10.00">create_profiles</text>
<text text-anchor="middle" x="143.62" y="-512.5" font-family="sans" font-size="10.00">seqid: seq.0000.0</text>
</g>
<!-- 6&#45;&gt;5 -->
<g id="edge10" class="edge">
<title>6&#45;&gt;5</title>
<path fill="none" stroke="grey" stroke-width="2" d="M143.62,-503.34C143.62,-496.75 143.62,-489.08 143.62,-481.67"/>
<polygon fill="grey" stroke="grey" stroke-width="2" points="147.13,-481.93 143.63,-471.93 140.13,-481.93 147.13,-481.93"/>
</g>
<!-- 7 -->
<g id="node8" class="node">
<title>7</title>
<path fill="none" stroke="#56d86b" stroke-width="2" d="M379.5,-108C379.5,-108 299.75,-108 299.75,-108 293.75,-108 287.75,-102 287.75,-96 287.75,-96 287.75,-84 287.75,-84 287.75,-78 293.75,-72 299.75,-72 299.75,-72 379.5,-72 379.5,-72 385.5,-72 391.5,-78 391.5,-84 391.5,-84 391.5,-96 391.5,-96 391.5,-102 385.5,-108 379.5,-108"/>
<text text-anchor="middle" x="339.62" y="-86.12" font-family="sans" font-size="10.00">sync_outputs_folder</text>
</g>
<!-- 7&#45;&gt;0 -->
<g id="edge2" class="edge">
<title>7&#45;&gt;0</title>
<path fill="none" stroke="grey" stroke-width="2" d="M305.97,-71.15C287.97,-61.61 265.7,-49.79 246.9,-39.83"/>
<polygon fill="grey" stroke="grey" stroke-width="2" points="248.57,-36.75 238.1,-35.16 245.3,-42.94 248.57,-36.75"/>
</g>
<!-- 8 -->
<g id="node9" class="node">
<title>8</title>
<path fill="none" stroke="#d88556" stroke-width="2" d="M398.75,-252C398.75,-252 356.5,-252 356.5,-252 350.5,-252 344.5,-246 344.5,-240 344.5,-240 344.5,-228 344.5,-228 344.5,-222 350.5,-216 356.5,-216 356.5,-216 398.75,-216 398.75,-216 404.75,-216 410.75,-222 410.75,-228 410.75,-228 410.75,-240 410.75,-240 410.75,-246 404.75,-252 398.75,-252"/>
<text text-anchor="middle" x="377.62" y="-230.12" font-family="sans" font-size="10.00">standardize</text>
</g>
<!-- 8&#45;&gt;7 -->
<g id="edge11" class="edge">
<title>8&#45;&gt;7</title>
<path fill="none" stroke="grey" stroke-width="2" d="M391.35,-215.06C403.61,-196.68 418.02,-167.55 406.62,-144 401.45,-133.31 392.96,-124.13 383.74,-116.55"/>
<polygon fill="grey" stroke="grey" stroke-width="2" points="386.1,-113.94 375.99,-110.77 381.91,-119.56 386.1,-113.94"/>
</g>
<!-- 8&#45;&gt;14 -->
<g id="edge19" class="edge">
<title>8&#45;&gt;14</title>
<path fill="none" stroke="grey" stroke-width="2" d="M365.76,-215.34C360.9,-208.1 355.15,-199.53 349.73,-191.45"/>
<polygon fill="grey" stroke="grey" stroke-width="2" points="352.81,-189.77 344.33,-183.41 347,-193.67 352.81,-189.77"/>
</g>
<!-- 8&#45;&gt;15 -->
<g id="edge21" class="edge">
<title>8&#45;&gt;15</title>
<path fill="none" stroke="grey" stroke-width="2" d="M343.92,-219.67C319.61,-210.05 286.2,-196.84 257.76,-185.6"/>
<polygon fill="grey" stroke="grey" stroke-width="2" points="259.32,-182.45 248.73,-182.02 256.74,-188.96 259.32,-182.45"/>
</g>
<!-- 17 -->
<g id="node18" class="node">
<title>17</title>
<path fill="none" stroke="#70d856" stroke-width="2" d="M475.25,-108C475.25,-108 436,-108 436,-108 430,-108 424,-102 424,-96 424,-96 424,-84 424,-84 424,-78 430,-72 436,-72 436,-72 475.25,-72 475.25,-72 481.25,-72 487.25,-78 487.25,-84 487.25,-84 487.25,-96 487.25,-96 487.25,-102 481.25,-108 475.25,-108"/>
<text text-anchor="middle" x="455.62" y="-86.12" font-family="sans" font-size="10.00">sync_plots</text>
</g>
<!-- 8&#45;&gt;17 -->
<g id="edge23" class="edge">
<title>8&#45;&gt;17</title>
<path fill="none" stroke="grey" stroke-width="2" d="M395.59,-215.08C404.62,-205.34 415.19,-192.71 422.62,-180 433.42,-161.55 441.75,-138.94 447.34,-121.13"/>
<polygon fill="grey" stroke="grey" stroke-width="2" points="450.63,-122.35 450.13,-111.77 443.92,-120.35 450.63,-122.35"/>
</g>
<!-- 9 -->
<g id="node10" class="node">
<title>9</title>
<path fill="none" stroke="#d85656" stroke-width="2" d="M392.62,-324C392.62,-324 362.62,-324 362.62,-324 356.62,-324 350.62,-318 350.62,-312 350.62,-312 350.62,-300 350.62,-300 350.62,-294 356.62,-288 362.62,-288 362.62,-288 392.62,-288 392.62,-288 398.62,-288 404.62,-294 404.62,-300 404.62,-300 404.62,-312 404.62,-312 404.62,-318 398.62,-324 392.62,-324"/>
<text text-anchor="middle" x="377.62" y="-302.12" font-family="sans" font-size="10.00">filter</text>
</g>
<!-- 9&#45;&gt;8 -->
<g id="edge12" class="edge">
<title>9&#45;&gt;8</title>
<path fill="none" stroke="grey" stroke-width="2" d="M377.62,-287.34C377.62,-280.75 377.62,-273.08 377.62,-265.67"/>
<polygon fill="grey" stroke="grey" stroke-width="2" points="381.13,-265.93 377.63,-255.93 374.13,-265.93 381.13,-265.93"/>
</g>
<!-- 10 -->
<g id="node11" class="node">
<title>10</title>
<path fill="none" stroke="#9fd856" stroke-width="2" d="M392.62,-396C392.62,-396 362.62,-396 362.62,-396 356.62,-396 350.62,-390 350.62,-384 350.62,-384 350.62,-372 350.62,-372 350.62,-366 356.62,-360 362.62,-360 362.62,-360 392.62,-360 392.62,-360 398.62,-360 404.62,-366 404.62,-372 404.62,-372 404.62,-384 404.62,-384 404.62,-390 398.62,-396 392.62,-396"/>
<text text-anchor="middle" x="377.62" y="-374.12" font-family="sans" font-size="10.00">sort</text>
</g>
<!-- 10&#45;&gt;9 -->
<g id="edge13" class="edge">
<title>10&#45;&gt;9</title>
<path fill="none" stroke="grey" stroke-width="2" d="M377.62,-359.34C377.62,-352.75 377.62,-345.08 377.62,-337.67"/>
<polygon fill="grey" stroke="grey" stroke-width="2" points="381.13,-337.93 377.63,-327.93 374.13,-337.93 381.13,-337.93"/>
</g>
<!-- 11 -->
<g id="node12" class="node">
<title>11</title>
<path fill="none" stroke="#56d89a" stroke-width="2" d="M405.5,-468C405.5,-468 349.75,-468 349.75,-468 343.75,-468 337.75,-462 337.75,-456 337.75,-456 337.75,-444 337.75,-444 337.75,-438 343.75,-432 349.75,-432 349.75,-432 405.5,-432 405.5,-432 411.5,-432 417.5,-438 417.5,-444 417.5,-444 417.5,-456 417.5,-456 417.5,-462 411.5,-468 405.5,-468"/>
<text text-anchor="middle" x="377.62" y="-446.12" font-family="sans" font-size="10.00">execute_metal</text>
</g>
<!-- 11&#45;&gt;10 -->
<g id="edge14" class="edge">
<title>11&#45;&gt;10</title>
<path fill="none" stroke="grey" stroke-width="2" d="M377.62,-431.34C377.62,-424.75 377.62,-417.08 377.62,-409.67"/>
<polygon fill="grey" stroke="grey" stroke-width="2" points="381.13,-409.93 377.63,-399.93 374.13,-409.93 381.13,-409.93"/>
</g>
<!-- 12 -->
<g id="node13" class="node">
<title>12</title>
<path fill="none" stroke="#56d8c9" stroke-width="2" d="M412.25,-540C412.25,-540 343,-540 343,-540 337,-540 331,-534 331,-528 331,-528 331,-516 331,-516 331,-510 337,-504 343,-504 343,-504 412.25,-504 412.25,-504 418.25,-504 424.25,-510 424.25,-516 424.25,-516 424.25,-528 424.25,-528 424.25,-534 418.25,-540 412.25,-540"/>
<text text-anchor="middle" x="377.62" y="-523.75" font-family="sans" font-size="10.00">create_profiles</text>
<text text-anchor="middle" x="377.62" y="-512.5" font-family="sans" font-size="10.00">seqid: seq.0001.0</text>
</g>
<!-- 12&#45;&gt;11 -->
<g id="edge15" class="edge">
<title>12&#45;&gt;11</title>
<path fill="none" stroke="grey" stroke-width="2" d="M377.62,-503.34C377.62,-496.75 377.62,-489.08 377.62,-481.67"/>
<polygon fill="grey" stroke="grey" stroke-width="2" points="381.13,-481.93 377.63,-471.93 374.13,-481.93 381.13,-481.93"/>
</g>
<!-- 13 -->
<g id="node14" class="node">
<title>13</title>
<path fill="none" stroke="#d8b456" stroke-width="2" d="M229.88,-108C229.88,-108 185.38,-108 185.38,-108 179.38,-108 173.38,-102 173.38,-96 173.38,-96 173.38,-84 173.38,-84 173.38,-78 179.38,-72 185.38,-72 185.38,-72 229.88,-72 229.88,-72 235.88,-72 241.88,-78 241.88,-84 241.88,-84 241.88,-96 241.88,-96 241.88,-102 235.88,-108 229.88,-108"/>
<text text-anchor="middle" x="207.62" y="-86.12" font-family="sans" font-size="10.00">sync_tables</text>
</g>
<!-- 13&#45;&gt;0 -->
<g id="edge3" class="edge">
<title>13&#45;&gt;0</title>
<path fill="none" stroke="grey" stroke-width="2" d="M207.62,-71.34C207.62,-64.75 207.62,-57.08 207.62,-49.67"/>
<polygon fill="grey" stroke="grey" stroke-width="2" points="211.13,-49.93 207.63,-39.93 204.13,-49.93 211.13,-49.93"/>
</g>
<!-- 14&#45;&gt;13 -->
<g id="edge16" class="edge">
<title>14&#45;&gt;13</title>
<path fill="none" stroke="grey" stroke-width="2" d="M299.27,-143.15C284.38,-134.68 266.35,-124.42 250.24,-115.25"/>
<polygon fill="grey" stroke="grey" stroke-width="2" points="251.98,-112.21 241.55,-110.31 248.51,-118.3 251.98,-112.21"/>
</g>
<!-- 15&#45;&gt;13 -->
<g id="edge17" class="edge">
<title>15&#45;&gt;13</title>
<path fill="none" stroke="grey" stroke-width="2" d="M202.39,-143.34C203.05,-136.75 203.82,-129.08 204.56,-121.67"/>
<polygon fill="grey" stroke="grey" stroke-width="2" points="208.02,-122.21 205.53,-111.91 201.06,-121.52 208.02,-122.21"/>
</g>
<!-- 16&#45;&gt;0 -->
<g id="edge4" class="edge">
<title>16&#45;&gt;0</title>
<path fill="none" stroke="grey" stroke-width="2" d="M63.91,-76.16C93.25,-64.49 136.65,-47.23 168.07,-34.73"/>
<polygon fill="grey" stroke="grey" stroke-width="2" points="169.08,-38.1 177.08,-31.15 166.49,-31.59 169.08,-38.1"/>
</g>
<!-- 17&#45;&gt;0 -->
<g id="edge5" class="edge">
<title>17&#45;&gt;0</title>
<path fill="none" stroke="grey" stroke-width="2" d="M423.1,-78.76C415.73,-76.49 407.92,-74.13 400.62,-72 348.03,-56.65 287.01,-40.11 247.89,-29.66"/>
<polygon fill="grey" stroke="grey" stroke-width="2" points="249,-26.33 238.43,-27.14 247.2,-33.1 249,-26.33"/>
</g>
</g>
</svg>
