<?xml version="1.0" encoding="UTF-8" standalone="no"?>
<!DOCTYPE svg PUBLIC "-//W3C//DTD SVG 1.1//EN"
 "http://www.w3.org/Graphics/SVG/1.1/DTD/svg11.dtd">
<!-- Generated by graphviz version 10.0.1 (20240210.2158)
 -->
<!-- Title: snakemake_dag Pages: 1 -->
<svg width="718pt" height="476pt"
 viewBox="0.00 0.00 718.38 476.00" xmlns="http://www.w3.org/2000/svg" xmlns:xlink="http://www.w3.org/1999/xlink">
<g id="graph0" class="graph" transform="scale(1 1) rotate(0) translate(4 472)">
<title>snakemake_dag</title>
<polygon fill="white" stroke="none" points="-4,4 -4,-472 714.38,-472 714.38,4 -4,4"/>
<!-- 0 -->
<g id="node1" class="node">
<title>0</title>
<path fill="none" stroke="#d88556" stroke-width="2" d="M335.62,-36C335.62,-36 305.62,-36 305.62,-36 299.62,-36 293.62,-30 293.62,-24 293.62,-24 293.62,-12 293.62,-12 293.62,-6 299.62,0 305.62,0 305.62,0 335.62,0 335.62,0 341.62,0 347.62,-6 347.62,-12 347.62,-12 347.62,-24 347.62,-24 347.62,-30 341.62,-36 335.62,-36"/>
<text text-anchor="middle" x="320.62" y="-14.12" font-family="sans" font-size="10.00">all</text>
</g>
<!-- 1 -->
<g id="node2" class="node">
<title>1</title>
<path fill="none" stroke="#59d856" stroke-width="2" d="M202.5,-108C202.5,-108 122.75,-108 122.75,-108 116.75,-108 110.75,-102 110.75,-96 110.75,-96 110.75,-84 110.75,-84 110.75,-78 116.75,-72 122.75,-72 122.75,-72 202.5,-72 202.5,-72 208.5,-72 214.5,-78 214.5,-84 214.5,-84 214.5,-96 214.5,-96 214.5,-102 208.5,-108 202.5,-108"/>
<text text-anchor="middle" x="162.62" y="-86.12" font-family="sans" font-size="10.00">sync_outputs_folder</text>
</g>
<!-- 1&#45;&gt;0 -->
<g id="edge1" class="edge">
<title>1&#45;&gt;0</title>
<path fill="none" stroke="grey" stroke-width="2" d="M202.9,-71.15C226.88,-60.53 257.19,-47.11 281.04,-36.54"/>
<polygon fill="grey" stroke="grey" stroke-width="2" points="282.37,-39.78 290.1,-32.53 279.54,-33.38 282.37,-39.78"/>
</g>
<!-- 2 -->
<g id="node3" class="node">
<title>2</title>
<path fill="none" stroke="#56d882" stroke-width="2" d="M83.38,-180C83.38,-180 41.88,-180 41.88,-180 35.88,-180 29.88,-174 29.88,-168 29.88,-168 29.88,-156 29.88,-156 29.88,-150 35.88,-144 41.88,-144 41.88,-144 83.38,-144 83.38,-144 89.38,-144 95.38,-150 95.38,-156 95.38,-156 95.38,-168 95.38,-168 95.38,-174 89.38,-180 83.38,-180"/>
<text text-anchor="middle" x="62.62" y="-158.12" font-family="sans" font-size="10.00">bgzip_tabix</text>
</g>
<!-- 2&#45;&gt;1 -->
<g id="edge6" class="edge">
<title>2&#45;&gt;1</title>
<path fill="none" stroke="grey" stroke-width="2" d="M88.12,-143.15C99.87,-134.93 114.03,-125.02 126.83,-116.06"/>
<polygon fill="grey" stroke="grey" stroke-width="2" points="128.51,-119.15 134.7,-110.55 124.5,-113.42 128.51,-119.15"/>
</g>
<!-- 3 -->
<g id="node4" class="node">
<title>3</title>
<path fill="none" stroke="#80d856" stroke-width="2" d="M183.75,-252C183.75,-252 141.5,-252 141.5,-252 135.5,-252 129.5,-246 129.5,-240 129.5,-240 129.5,-228 129.5,-228 129.5,-222 135.5,-216 141.5,-216 141.5,-216 183.75,-216 183.75,-216 189.75,-216 195.75,-222 195.75,-228 195.75,-228 195.75,-240 195.75,-240 195.75,-246 189.75,-252 183.75,-252"/>
<text text-anchor="middle" x="162.62" y="-230.12" font-family="sans" font-size="10.00">standardize</text>
</g>
<!-- 3&#45;&gt;2 -->
<g id="edge8" class="edge">
<title>3&#45;&gt;2</title>
<path fill="none" stroke="grey" stroke-width="2" d="M137.13,-215.15C125.38,-206.93 111.22,-197.02 98.42,-188.06"/>
<polygon fill="grey" stroke="grey" stroke-width="2" points="100.75,-185.42 90.55,-182.55 96.74,-191.15 100.75,-185.42"/>
</g>
<!-- 7 -->
<g id="node8" class="node">
<title>7</title>
<path fill="none" stroke="#d8ac56" stroke-width="2" d="M199.88,-180C199.88,-180 125.38,-180 125.38,-180 119.38,-180 113.38,-174 113.38,-168 113.38,-168 113.38,-156 113.38,-156 113.38,-150 119.38,-144 125.38,-144 125.38,-144 199.88,-144 199.88,-144 205.88,-144 211.88,-150 211.88,-156 211.88,-156 211.88,-168 211.88,-168 211.88,-174 205.88,-180 199.88,-180"/>
<text text-anchor="middle" x="162.62" y="-158.12" font-family="sans" font-size="10.00">filter_heterogeneity</text>
</g>
<!-- 3&#45;&gt;7 -->
<g id="edge12" class="edge">
<title>3&#45;&gt;7</title>
<path fill="none" stroke="grey" stroke-width="2" d="M162.62,-215.34C162.62,-208.75 162.62,-201.08 162.62,-193.67"/>
<polygon fill="grey" stroke="grey" stroke-width="2" points="166.13,-193.93 162.63,-183.93 159.13,-193.93 166.13,-193.93"/>
</g>
<!-- 16 -->
<g id="node17" class="node">
<title>16</title>
<path fill="none" stroke="#56a9d8" stroke-width="2" d="M352.88,-180C352.88,-180 242.38,-180 242.38,-180 236.38,-180 230.38,-174 230.38,-168 230.38,-168 230.38,-156 230.38,-156 230.38,-150 236.38,-144 242.38,-144 242.38,-144 352.88,-144 352.88,-144 358.88,-144 364.88,-150 364.88,-156 364.88,-156 364.88,-168 364.88,-168 364.88,-174 358.88,-180 352.88,-180"/>
<text text-anchor="middle" x="297.62" y="-158.12" font-family="sans" font-size="10.00">generate_min_pvalue_table</text>
</g>
<!-- 3&#45;&gt;16 -->
<g id="edge22" class="edge">
<title>3&#45;&gt;16</title>
<path fill="none" stroke="grey" stroke-width="2" d="M196.69,-215.34C213.35,-206.7 233.65,-196.17 251.66,-186.84"/>
<polygon fill="grey" stroke="grey" stroke-width="2" points="253.15,-190.01 260.41,-182.3 249.92,-183.79 253.15,-190.01"/>
</g>
<!-- 17 -->
<g id="node18" class="node">
<title>17</title>
<path fill="none" stroke="#56d8d8" stroke-width="2" d="M460.75,-180C460.75,-180 394.5,-180 394.5,-180 388.5,-180 382.5,-174 382.5,-168 382.5,-168 382.5,-156 382.5,-156 382.5,-150 388.5,-144 394.5,-144 394.5,-144 460.75,-144 460.75,-144 466.75,-144 472.75,-150 472.75,-156 472.75,-156 472.75,-168 472.75,-168 472.75,-174 466.75,-180 460.75,-180"/>
<text text-anchor="middle" x="427.62" y="-158.12" font-family="sans" font-size="10.00">generate_if_table</text>
</g>
<!-- 3&#45;&gt;17 -->
<g id="edge24" class="edge">
<title>3&#45;&gt;17</title>
<path fill="none" stroke="grey" stroke-width="2" d="M196.41,-225.16C235.76,-215.89 303,-199.62 369.35,-181.13"/>
<polygon fill="grey" stroke="grey" stroke-width="2" points="370.13,-184.55 378.81,-178.47 368.24,-177.81 370.13,-184.55"/>
</g>
<!-- 18 -->
<g id="node19" class="node">
<title>18</title>
<path fill="none" stroke="#5682d8" stroke-width="2" d="M51.25,-108C51.25,-108 12,-108 12,-108 6,-108 0,-102 0,-96 0,-96 0,-84 0,-84 0,-78 6,-72 12,-72 12,-72 51.25,-72 51.25,-72 57.25,-72 63.25,-78 63.25,-84 63.25,-84 63.25,-96 63.25,-96 63.25,-102 57.25,-108 51.25,-108"/>
<text text-anchor="middle" x="31.62" y="-86.12" font-family="sans" font-size="10.00">sync_plots</text>
</g>
<!-- 3&#45;&gt;18 -->
<g id="edge26" class="edge">
<title>3&#45;&gt;18</title>
<path fill="none" stroke="grey" stroke-width="2" d="M128.77,-230.94C95.03,-226.87 44.86,-214.91 20.62,-180 8.78,-162.94 12.27,-139.49 18.33,-120.94"/>
<polygon fill="grey" stroke="grey" stroke-width="2" points="21.6,-122.17 21.83,-111.58 15.05,-119.72 21.6,-122.17"/>
</g>
<!-- 4 -->
<g id="node5" class="node">
<title>4</title>
<path fill="none" stroke="#d6d856" stroke-width="2" d="M189.38,-324C189.38,-324 135.88,-324 135.88,-324 129.88,-324 123.88,-318 123.88,-312 123.88,-312 123.88,-300 123.88,-300 123.88,-294 129.88,-288 135.88,-288 135.88,-288 189.38,-288 189.38,-288 195.38,-288 201.38,-294 201.38,-300 201.38,-300 201.38,-312 201.38,-312 201.38,-318 195.38,-324 189.38,-324"/>
<text text-anchor="middle" x="162.62" y="-302.12" font-family="sans" font-size="10.00">sort_and_filter</text>
</g>
<!-- 4&#45;&gt;3 -->
<g id="edge9" class="edge">
<title>4&#45;&gt;3</title>
<path fill="none" stroke="grey" stroke-width="2" d="M162.62,-287.34C162.62,-280.75 162.62,-273.08 162.62,-265.67"/>
<polygon fill="grey" stroke="grey" stroke-width="2" points="166.13,-265.93 162.63,-255.93 159.13,-265.93 166.13,-265.93"/>
</g>
<!-- 5 -->
<g id="node6" class="node">
<title>5</title>
<path fill="none" stroke="#d85656" stroke-width="2" d="M190.5,-396C190.5,-396 134.75,-396 134.75,-396 128.75,-396 122.75,-390 122.75,-384 122.75,-384 122.75,-372 122.75,-372 122.75,-366 128.75,-360 134.75,-360 134.75,-360 190.5,-360 190.5,-360 196.5,-360 202.5,-366 202.5,-372 202.5,-372 202.5,-384 202.5,-384 202.5,-390 196.5,-396 190.5,-396"/>
<text text-anchor="middle" x="162.62" y="-374.12" font-family="sans" font-size="10.00">execute_metal</text>
</g>
<!-- 5&#45;&gt;4 -->
<g id="edge10" class="edge">
<title>5&#45;&gt;4</title>
<path fill="none" stroke="grey" stroke-width="2" d="M162.62,-359.34C162.62,-352.75 162.62,-345.08 162.62,-337.67"/>
<polygon fill="grey" stroke="grey" stroke-width="2" points="166.13,-337.93 162.63,-327.93 159.13,-337.93 166.13,-337.93"/>
</g>
<!-- 6 -->
<g id="node7" class="node">
<title>6</title>
<path fill="none" stroke="#afd856" stroke-width="2" d="M193.12,-468C193.12,-468 132.12,-468 132.12,-468 126.12,-468 120.12,-462 120.12,-456 120.12,-456 120.12,-444 120.12,-444 120.12,-438 126.12,-432 132.12,-432 132.12,-432 193.12,-432 193.12,-432 199.12,-432 205.12,-438 205.12,-444 205.12,-444 205.12,-456 205.12,-456 205.12,-462 199.12,-468 193.12,-468"/>
<text text-anchor="middle" x="162.62" y="-451.75" font-family="sans" font-size="10.00">create_profiles</text>
<text text-anchor="middle" x="162.62" y="-440.5" font-family="sans" font-size="10.00">seqid: seq.0000</text>
</g>
<!-- 6&#45;&gt;5 -->
<g id="edge11" class="edge">
<title>6&#45;&gt;5</title>
<path fill="none" stroke="grey" stroke-width="2" d="M162.62,-431.34C162.62,-424.75 162.62,-417.08 162.62,-409.67"/>
<polygon fill="grey" stroke="grey" stroke-width="2" points="166.13,-409.93 162.63,-399.93 159.13,-409.93 166.13,-409.93"/>
</g>
<!-- 7&#45;&gt;1 -->
<g id="edge7" class="edge">
<title>7&#45;&gt;1</title>
<path fill="none" stroke="grey" stroke-width="2" d="M162.62,-143.34C162.62,-136.75 162.62,-129.08 162.62,-121.67"/>
<polygon fill="grey" stroke="grey" stroke-width="2" points="166.13,-121.93 162.63,-111.93 159.13,-121.93 166.13,-121.93"/>
</g>
<!-- 8 -->
<g id="node9" class="node">
<title>8</title>
<path fill="none" stroke="#59d856" stroke-width="2" d="M617.5,-108C617.5,-108 537.75,-108 537.75,-108 531.75,-108 525.75,-102 525.75,-96 525.75,-96 525.75,-84 525.75,-84 525.75,-78 531.75,-72 537.75,-72 537.75,-72 617.5,-72 617.5,-72 623.5,-72 629.5,-78 629.5,-84 629.5,-84 629.5,-96 629.5,-96 629.5,-102 623.5,-108 617.5,-108"/>
<text text-anchor="middle" x="577.62" y="-86.12" font-family="sans" font-size="10.00">sync_outputs_folder</text>
</g>
<!-- 8&#45;&gt;0 -->
<g id="edge2" class="edge">
<title>8&#45;&gt;0</title>
<path fill="none" stroke="grey" stroke-width="2" d="M525,-74.67C476.45,-61.44 405.39,-42.09 361.13,-30.03"/>
<polygon fill="grey" stroke="grey" stroke-width="2" points="362.07,-26.66 351.5,-27.41 360.23,-33.42 362.07,-26.66"/>
</g>
<!-- 9 -->
<g id="node10" class="node">
<title>9</title>
<path fill="none" stroke="#56d882" stroke-width="2" d="M698.38,-180C698.38,-180 656.88,-180 656.88,-180 650.88,-180 644.88,-174 644.88,-168 644.88,-168 644.88,-156 644.88,-156 644.88,-150 650.88,-144 656.88,-144 656.88,-144 698.38,-144 698.38,-144 704.38,-144 710.38,-150 710.38,-156 710.38,-156 710.38,-168 710.38,-168 710.38,-174 704.38,-180 698.38,-180"/>
<text text-anchor="middle" x="677.62" y="-158.12" font-family="sans" font-size="10.00">bgzip_tabix</text>
</g>
<!-- 9&#45;&gt;8 -->
<g id="edge13" class="edge">
<title>9&#45;&gt;8</title>
<path fill="none" stroke="grey" stroke-width="2" d="M652.13,-143.15C640.38,-134.93 626.22,-125.02 613.42,-116.06"/>
<polygon fill="grey" stroke="grey" stroke-width="2" points="615.75,-113.42 605.55,-110.55 611.74,-119.15 615.75,-113.42"/>
</g>
<!-- 10 -->
<g id="node11" class="node">
<title>10</title>
<path fill="none" stroke="#80d856" stroke-width="2" d="M521.75,-252C521.75,-252 479.5,-252 479.5,-252 473.5,-252 467.5,-246 467.5,-240 467.5,-240 467.5,-228 467.5,-228 467.5,-222 473.5,-216 479.5,-216 479.5,-216 521.75,-216 521.75,-216 527.75,-216 533.75,-222 533.75,-228 533.75,-228 533.75,-240 533.75,-240 533.75,-246 527.75,-252 521.75,-252"/>
<text text-anchor="middle" x="500.62" y="-230.12" font-family="sans" font-size="10.00">standardize</text>
</g>
<!-- 10&#45;&gt;9 -->
<g id="edge15" class="edge">
<title>10&#45;&gt;9</title>
<path fill="none" stroke="grey" stroke-width="2" d="M534.51,-219.81C559.27,-210.15 593.96,-196.56 632.19,-181.35"/>
<polygon fill="grey" stroke="grey" stroke-width="2" points="633.36,-184.65 641.36,-177.7 630.77,-178.15 633.36,-184.65"/>
</g>
<!-- 14 -->
<g id="node15" class="node">
<title>14</title>
<path fill="none" stroke="#d8ac56" stroke-width="2" d="M614.88,-180C614.88,-180 540.38,-180 540.38,-180 534.38,-180 528.38,-174 528.38,-168 528.38,-168 528.38,-156 528.38,-156 528.38,-150 534.38,-144 540.38,-144 540.38,-144 614.88,-144 614.88,-144 620.88,-144 626.88,-150 626.88,-156 626.88,-156 626.88,-168 626.88,-168 626.88,-174 620.88,-180 614.88,-180"/>
<text text-anchor="middle" x="577.62" y="-158.12" font-family="sans" font-size="10.00">filter_heterogeneity</text>
</g>
<!-- 10&#45;&gt;14 -->
<g id="edge19" class="edge">
<title>10&#45;&gt;14</title>
<path fill="none" stroke="grey" stroke-width="2" d="M520.06,-215.34C528.65,-207.52 538.95,-198.16 548.44,-189.53"/>
<polygon fill="grey" stroke="grey" stroke-width="2" points="550.65,-192.25 555.69,-182.94 545.94,-187.07 550.65,-192.25"/>
</g>
<!-- 10&#45;&gt;16 -->
<g id="edge23" class="edge">
<title>10&#45;&gt;16</title>
<path fill="none" stroke="grey" stroke-width="2" d="M466.65,-221.28C438.07,-211.43 396.44,-197.07 361.64,-185.07"/>
<polygon fill="grey" stroke="grey" stroke-width="2" points="363.1,-181.88 352.51,-181.93 360.82,-188.49 363.1,-181.88"/>
</g>
<!-- 10&#45;&gt;17 -->
<g id="edge25" class="edge">
<title>10&#45;&gt;17</title>
<path fill="none" stroke="grey" stroke-width="2" d="M482.2,-215.34C474.14,-207.6 464.5,-198.36 455.58,-189.81"/>
<polygon fill="grey" stroke="grey" stroke-width="2" points="458.12,-187.39 448.48,-183 453.27,-192.44 458.12,-187.39"/>
</g>
<!-- 19 -->
<g id="node20" class="node">
<title>19</title>
<path fill="none" stroke="#5682d8" stroke-width="2" d="M448.25,-108C448.25,-108 409,-108 409,-108 403,-108 397,-102 397,-96 397,-96 397,-84 397,-84 397,-78 403,-72 409,-72 409,-72 448.25,-72 448.25,-72 454.25,-72 460.25,-78 460.25,-84 460.25,-84 460.25,-96 460.25,-96 460.25,-102 454.25,-108 448.25,-108"/>
<text text-anchor="middle" x="428.62" y="-86.12" font-family="sans" font-size="10.00">sync_plots</text>
</g>
<!-- 10&#45;&gt;19 -->
<g id="edge27" class="edge">
<title>10&#45;&gt;19</title>
<path fill="none" stroke="grey" stroke-width="2" d="M499.79,-215.26C498.26,-196.52 493.92,-166.63 481.62,-144 476.41,-134.41 468.92,-125.41 461.21,-117.65"/>
<polygon fill="grey" stroke="grey" stroke-width="2" points="463.72,-115.21 454.04,-110.91 458.93,-120.31 463.72,-115.21"/>
</g>
<!-- 11 -->
<g id="node12" class="node">
<title>11</title>
<path fill="none" stroke="#d6d856" stroke-width="2" d="M527.38,-324C527.38,-324 473.88,-324 473.88,-324 467.88,-324 461.88,-318 461.88,-312 461.88,-312 461.88,-300 461.88,-300 461.88,-294 467.88,-288 473.88,-288 473.88,-288 527.38,-288 527.38,-288 533.38,-288 539.38,-294 539.38,-300 539.38,-300 539.38,-312 539.38,-312 539.38,-318 533.38,-324 527.38,-324"/>
<text text-anchor="middle" x="500.62" y="-302.12" font-family="sans" font-size="10.00">sort_and_filter</text>
</g>
<!-- 11&#45;&gt;10 -->
<g id="edge16" class="edge">
<title>11&#45;&gt;10</title>
<path fill="none" stroke="grey" stroke-width="2" d="M500.62,-287.34C500.62,-280.75 500.62,-273.08 500.62,-265.67"/>
<polygon fill="grey" stroke="grey" stroke-width="2" points="504.13,-265.93 500.63,-255.93 497.13,-265.93 504.13,-265.93"/>
</g>
<!-- 12 -->
<g id="node13" class="node">
<title>12</title>
<path fill="none" stroke="#d85656" stroke-width="2" d="M528.5,-396C528.5,-396 472.75,-396 472.75,-396 466.75,-396 460.75,-390 460.75,-384 460.75,-384 460.75,-372 460.75,-372 460.75,-366 466.75,-360 472.75,-360 472.75,-360 528.5,-360 528.5,-360 534.5,-360 540.5,-366 540.5,-372 540.5,-372 540.5,-384 540.5,-384 540.5,-390 534.5,-396 528.5,-396"/>
<text text-anchor="middle" x="500.62" y="-374.12" font-family="sans" font-size="10.00">execute_metal</text>
</g>
<!-- 12&#45;&gt;11 -->
<g id="edge17" class="edge">
<title>12&#45;&gt;11</title>
<path fill="none" stroke="grey" stroke-width="2" d="M500.62,-359.34C500.62,-352.75 500.62,-345.08 500.62,-337.67"/>
<polygon fill="grey" stroke="grey" stroke-width="2" points="504.13,-337.93 500.63,-327.93 497.13,-337.93 504.13,-337.93"/>
</g>
<!-- 13 -->
<g id="node14" class="node">
<title>13</title>
<path fill="none" stroke="#afd856" stroke-width="2" d="M531.12,-468C531.12,-468 470.12,-468 470.12,-468 464.12,-468 458.12,-462 458.12,-456 458.12,-456 458.12,-444 458.12,-444 458.12,-438 464.12,-432 470.12,-432 470.12,-432 531.12,-432 531.12,-432 537.12,-432 543.12,-438 543.12,-444 543.12,-444 543.12,-456 543.12,-456 543.12,-462 537.12,-468 531.12,-468"/>
<text text-anchor="middle" x="500.62" y="-451.75" font-family="sans" font-size="10.00">create_profiles</text>
<text text-anchor="middle" x="500.62" y="-440.5" font-family="sans" font-size="10.00">seqid: seq.0001</text>
</g>
<!-- 13&#45;&gt;12 -->
<g id="edge18" class="edge">
<title>13&#45;&gt;12</title>
<path fill="none" stroke="grey" stroke-width="2" d="M500.62,-431.34C500.62,-424.75 500.62,-417.08 500.62,-409.67"/>
<polygon fill="grey" stroke="grey" stroke-width="2" points="504.13,-409.93 500.63,-399.93 497.13,-409.93 504.13,-409.93"/>
</g>
<!-- 14&#45;&gt;8 -->
<g id="edge14" class="edge">
<title>14&#45;&gt;8</title>
<path fill="none" stroke="grey" stroke-width="2" d="M577.62,-143.34C577.62,-136.75 577.62,-129.08 577.62,-121.67"/>
<polygon fill="grey" stroke="grey" stroke-width="2" points="581.13,-121.93 577.63,-111.93 574.13,-121.93 581.13,-121.93"/>
</g>
<!-- 15 -->
<g id="node16" class="node">
<title>15</title>
<path fill="none" stroke="#56d8a9" stroke-width="2" d="M342.88,-108C342.88,-108 298.38,-108 298.38,-108 292.38,-108 286.38,-102 286.38,-96 286.38,-96 286.38,-84 286.38,-84 286.38,-78 292.38,-72 298.38,-72 298.38,-72 342.88,-72 342.88,-72 348.88,-72 354.88,-78 354.88,-84 354.88,-84 354.88,-96 354.88,-96 354.88,-102 348.88,-108 342.88,-108"/>
<text text-anchor="middle" x="320.62" y="-86.12" font-family="sans" font-size="10.00">sync_tables</text>
</g>
<!-- 15&#45;&gt;0 -->
<g id="edge3" class="edge">
<title>15&#45;&gt;0</title>
<path fill="none" stroke="grey" stroke-width="2" d="M320.62,-71.34C320.62,-64.75 320.62,-57.08 320.62,-49.67"/>
<polygon fill="grey" stroke="grey" stroke-width="2" points="324.13,-49.93 320.63,-39.93 317.13,-49.93 324.13,-49.93"/>
</g>
<!-- 16&#45;&gt;15 -->
<g id="edge20" class="edge">
<title>16&#45;&gt;15</title>
<path fill="none" stroke="grey" stroke-width="2" d="M303.43,-143.34C305.65,-136.59 308.24,-128.69 310.73,-121.11"/>
<polygon fill="grey" stroke="grey" stroke-width="2" points="314,-122.37 313.8,-111.78 307.35,-120.19 314,-122.37"/>
</g>
<!-- 17&#45;&gt;15 -->
<g id="edge21" class="edge">
<title>17&#45;&gt;15</title>
<path fill="none" stroke="grey" stroke-width="2" d="M400.35,-143.15C387.64,-134.84 372.32,-124.82 358.52,-115.79"/>
<polygon fill="grey" stroke="grey" stroke-width="2" points="360.67,-113.02 350.39,-110.47 356.84,-118.87 360.67,-113.02"/>
</g>
<!-- 18&#45;&gt;0 -->
<g id="edge4" class="edge">
<title>18&#45;&gt;0</title>
<path fill="none" stroke="grey" stroke-width="2" d="M64.03,-81.12C75.86,-78.25 89.35,-74.98 101.62,-72 164.12,-56.85 236.65,-39.3 280.57,-28.68"/>
<polygon fill="grey" stroke="grey" stroke-width="2" points="281.13,-32.15 290.02,-26.4 279.48,-25.35 281.13,-32.15"/>
</g>
<!-- 19&#45;&gt;0 -->
<g id="edge5" class="edge">
<title>19&#45;&gt;0</title>
<path fill="none" stroke="grey" stroke-width="2" d="M401.09,-71.15C388.27,-62.84 372.81,-52.82 358.87,-43.79"/>
<polygon fill="grey" stroke="grey" stroke-width="2" points="360.94,-40.96 350.65,-38.46 357.14,-46.83 360.94,-40.96"/>
</g>
</g>
</svg>
