<?xml version="1.0" encoding="UTF-8" standalone="no"?>
<!DOCTYPE svg PUBLIC "-//W3C//DTD SVG 1.1//EN"
 "http://www.w3.org/Graphics/SVG/1.1/DTD/svg11.dtd">
<!-- Generated by graphviz version 10.0.1 (20240210.2158)
 -->
<!-- Title: snakemake_dag Pages: 1 -->
<svg width="101pt" height="404pt"
 viewBox="0.00 0.00 101.25 404.00" xmlns="http://www.w3.org/2000/svg" xmlns:xlink="http://www.w3.org/1999/xlink">
<g id="graph0" class="graph" transform="scale(1 1) rotate(0) translate(4 400)">
<title>snakemake_dag</title>
<polygon fill="white" stroke="none" points="-4,4 -4,-400 97.25,-400 97.25,4 -4,4"/>
<!-- 0 -->
<g id="node1" class="node">
<title>0</title>
<path fill="none" stroke="#56d8a9" stroke-width="2" d="M61.62,-36C61.62,-36 31.62,-36 31.62,-36 25.63,-36 19.62,-30 19.62,-24 19.62,-24 19.62,-12 19.62,-12 19.62,-6 25.62,0 31.62,0 31.62,0 61.62,0 61.62,0 67.62,0 73.62,-6 73.62,-12 73.62,-12 73.62,-24 73.62,-24 73.62,-30 67.62,-36 61.62,-36"/>
<text text-anchor="middle" x="46.62" y="-14.12" font-family="sans" font-size="10.00">all</text>
</g>
<!-- 1 -->
<g id="node2" class="node">
<title>1</title>
<path fill="none" stroke="#59d856" stroke-width="2" d="M61.62,-108C61.62,-108 31.62,-108 31.62,-108 25.63,-108 19.62,-102 19.62,-96 19.62,-96 19.62,-84 19.62,-84 19.62,-78 25.62,-72 31.62,-72 31.62,-72 61.62,-72 61.62,-72 67.62,-72 73.62,-78 73.62,-84 73.62,-84 73.62,-96 73.62,-96 73.62,-102 67.62,-108 61.62,-108"/>
<text text-anchor="middle" x="46.62" y="-86.12" font-family="sans" font-size="10.00">delivery</text>
</g>
<!-- 1&#45;&gt;0 -->
<g id="edge1" class="edge">
<title>1&#45;&gt;0</title>
<path fill="none" stroke="grey" stroke-width="2" d="M46.62,-71.34C46.62,-64.75 46.62,-57.08 46.62,-49.67"/>
<polygon fill="grey" stroke="grey" stroke-width="2" points="50.13,-49.93 46.63,-39.93 43.13,-49.93 50.13,-49.93"/>
</g>
<!-- 2 -->
<g id="node3" class="node">
<title>2</title>
<path fill="none" stroke="#afd856" stroke-width="2" d="M61.62,-180C61.62,-180 31.62,-180 31.62,-180 25.63,-180 19.62,-174 19.62,-168 19.62,-168 19.62,-156 19.62,-156 19.62,-150 25.62,-144 31.62,-144 31.62,-144 61.62,-144 61.62,-144 67.62,-144 73.62,-150 73.62,-156 73.62,-156 73.62,-168 73.62,-168 73.62,-174 67.62,-180 61.62,-180"/>
<text text-anchor="middle" x="46.62" y="-158.12" font-family="sans" font-size="10.00">filter</text>
</g>
<!-- 2&#45;&gt;1 -->
<g id="edge2" class="edge">
<title>2&#45;&gt;1</title>
<path fill="none" stroke="grey" stroke-width="2" d="M46.62,-143.34C46.62,-136.75 46.62,-129.08 46.62,-121.67"/>
<polygon fill="grey" stroke="grey" stroke-width="2" points="50.13,-121.93 46.63,-111.93 43.13,-121.93 50.13,-121.93"/>
</g>
<!-- 3 -->
<g id="node4" class="node">
<title>3</title>
<path fill="none" stroke="#56a9d8" stroke-width="2" d="M61.62,-252C61.62,-252 31.62,-252 31.62,-252 25.63,-252 19.62,-246 19.62,-240 19.62,-240 19.62,-228 19.62,-228 19.62,-222 25.62,-216 31.62,-216 31.62,-216 61.62,-216 61.62,-216 67.62,-216 73.62,-222 73.62,-228 73.62,-228 73.62,-240 73.62,-240 73.62,-246 67.62,-252 61.62,-252"/>
<text text-anchor="middle" x="46.62" y="-230.12" font-family="sans" font-size="10.00">sort</text>
</g>
<!-- 3&#45;&gt;2 -->
<g id="edge3" class="edge">
<title>3&#45;&gt;2</title>
<path fill="none" stroke="grey" stroke-width="2" d="M46.62,-215.34C46.62,-208.75 46.62,-201.08 46.62,-193.67"/>
<polygon fill="grey" stroke="grey" stroke-width="2" points="50.13,-193.93 46.63,-183.93 43.13,-193.93 50.13,-193.93"/>
</g>
<!-- 4 -->
<g id="node5" class="node">
<title>4</title>
<path fill="none" stroke="#d85656" stroke-width="2" d="M74.5,-324C74.5,-324 18.75,-324 18.75,-324 12.75,-324 6.75,-318 6.75,-312 6.75,-312 6.75,-300 6.75,-300 6.75,-294 12.75,-288 18.75,-288 18.75,-288 74.5,-288 74.5,-288 80.5,-288 86.5,-294 86.5,-300 86.5,-300 86.5,-312 86.5,-312 86.5,-318 80.5,-324 74.5,-324"/>
<text text-anchor="middle" x="46.62" y="-302.12" font-family="sans" font-size="10.00">execute_metal</text>
</g>
<!-- 4&#45;&gt;3 -->
<g id="edge4" class="edge">
<title>4&#45;&gt;3</title>
<path fill="none" stroke="grey" stroke-width="2" d="M46.62,-287.34C46.62,-280.75 46.62,-273.08 46.62,-265.67"/>
<polygon fill="grey" stroke="grey" stroke-width="2" points="50.13,-265.93 46.63,-255.93 43.13,-265.93 50.13,-265.93"/>
</g>
<!-- 5 -->
<g id="node6" class="node">
<title>5</title>
<path fill="none" stroke="#d8ac56" stroke-width="2" d="M81.25,-396C81.25,-396 12,-396 12,-396 6,-396 0,-390 0,-384 0,-384 0,-372 0,-372 0,-366 6,-360 12,-360 12,-360 81.25,-360 81.25,-360 87.25,-360 93.25,-366 93.25,-372 93.25,-372 93.25,-384 93.25,-384 93.25,-390 87.25,-396 81.25,-396"/>
<text text-anchor="middle" x="46.62" y="-379.75" font-family="sans" font-size="10.00">create_profiles</text>
<text text-anchor="middle" x="46.62" y="-368.5" font-family="sans" font-size="10.00">seqid: seq.0000.0</text>
</g>
<!-- 5&#45;&gt;4 -->
<g id="edge5" class="edge">
<title>5&#45;&gt;4</title>
<path fill="none" stroke="grey" stroke-width="2" d="M46.62,-359.34C46.62,-352.75 46.62,-345.08 46.62,-337.67"/>
<polygon fill="grey" stroke="grey" stroke-width="2" points="50.13,-337.93 46.63,-327.93 43.13,-337.93 50.13,-337.93"/>
</g>
</g>
</svg>
