<?xml version="1.0" encoding="UTF-8" standalone="no"?>
<!DOCTYPE svg PUBLIC "-//W3C//DTD SVG 1.1//EN"
 "http://www.w3.org/Graphics/SVG/1.1/DTD/svg11.dtd">
<!-- Generated by graphviz version 10.0.1 (20240210.2158)
 -->
<!-- Title: snakemake_dag Pages: 1 -->
<svg width="627pt" height="476pt"
 viewBox="0.00 0.00 626.58 476.00" xmlns="http://www.w3.org/2000/svg" xmlns:xlink="http://www.w3.org/1999/xlink">
<g id="graph0" class="graph" transform="scale(1 1) rotate(0) translate(4 472)">
<title>snakemake_dag</title>
<polygon fill="white" stroke="none" points="-4,4 -4,-472 622.58,-472 622.58,4 -4,4"/>
<!-- 0 -->
<g id="node1" class="node">
<title>0</title>
<path fill="none" stroke="#56d8c9" stroke-width="2" d="M312.62,-36C312.62,-36 282.62,-36 282.62,-36 276.62,-36 270.62,-30 270.62,-24 270.62,-24 270.62,-12 270.62,-12 270.62,-6 276.62,0 282.62,0 282.62,0 312.62,0 312.62,0 318.62,0 324.62,-6 324.62,-12 324.62,-12 324.62,-24 324.62,-24 324.62,-30 318.62,-36 312.62,-36"/>
<text text-anchor="middle" x="297.62" y="-14.12" font-family="sans" font-size="10.00">all</text>
</g>
<!-- 1 -->
<g id="node2" class="node">
<title>1</title>
<path fill="none" stroke="#9fd856" stroke-width="2" d="M179.5,-108C179.5,-108 99.75,-108 99.75,-108 93.75,-108 87.75,-102 87.75,-96 87.75,-96 87.75,-84 87.75,-84 87.75,-78 93.75,-72 99.75,-72 99.75,-72 179.5,-72 179.5,-72 185.5,-72 191.5,-78 191.5,-84 191.5,-84 191.5,-96 191.5,-96 191.5,-102 185.5,-108 179.5,-108"/>
<text text-anchor="middle" x="139.62" y="-86.12" font-family="sans" font-size="10.00">sync_outputs_folder</text>
</g>
<!-- 1&#45;&gt;0 -->
<g id="edge1" class="edge">
<title>1&#45;&gt;0</title>
<path fill="none" stroke="grey" stroke-width="2" d="M179.9,-71.15C203.88,-60.53 234.19,-47.11 258.04,-36.54"/>
<polygon fill="grey" stroke="grey" stroke-width="2" points="259.37,-39.78 267.1,-32.53 256.54,-33.38 259.37,-39.78"/>
</g>
<!-- 2 -->
<g id="node3" class="node">
<title>2</title>
<path fill="none" stroke="#5682d8" stroke-width="2" d="M160.75,-252C160.75,-252 118.5,-252 118.5,-252 112.5,-252 106.5,-246 106.5,-240 106.5,-240 106.5,-228 106.5,-228 106.5,-222 112.5,-216 118.5,-216 118.5,-216 160.75,-216 160.75,-216 166.75,-216 172.75,-222 172.75,-228 172.75,-228 172.75,-240 172.75,-240 172.75,-246 166.75,-252 160.75,-252"/>
<text text-anchor="middle" x="139.62" y="-230.12" font-family="sans" font-size="10.00">standardize</text>
</g>
<!-- 2&#45;&gt;1 -->
<g id="edge6" class="edge">
<title>2&#45;&gt;1</title>
<path fill="none" stroke="grey" stroke-width="2" d="M111.37,-215.07C99.87,-206.08 87.84,-194.1 81.62,-180 75.17,-165.36 75.17,-158.64 81.62,-144 86.09,-133.86 93.57,-124.82 101.68,-117.21"/>
<polygon fill="grey" stroke="grey" stroke-width="2" points="103.74,-120.06 109.07,-110.9 99.19,-114.73 103.74,-120.06"/>
</g>
<!-- 6 -->
<g id="node7" class="node">
<title>6</title>
<path fill="none" stroke="#d88556" stroke-width="2" d="M176.88,-180C176.88,-180 102.38,-180 102.38,-180 96.38,-180 90.38,-174 90.38,-168 90.38,-168 90.38,-156 90.38,-156 90.38,-150 96.38,-144 102.38,-144 102.38,-144 176.88,-144 176.88,-144 182.88,-144 188.88,-150 188.88,-156 188.88,-156 188.88,-168 188.88,-168 188.88,-174 182.88,-180 176.88,-180"/>
<text text-anchor="middle" x="139.62" y="-158.12" font-family="sans" font-size="10.00">filter_heterogeneity</text>
</g>
<!-- 2&#45;&gt;6 -->
<g id="edge11" class="edge">
<title>2&#45;&gt;6</title>
<path fill="none" stroke="grey" stroke-width="2" d="M139.62,-215.34C139.62,-208.75 139.62,-201.08 139.62,-193.67"/>
<polygon fill="grey" stroke="grey" stroke-width="2" points="143.13,-193.93 139.63,-183.93 136.13,-193.93 143.13,-193.93"/>
</g>
<!-- 14 -->
<g id="node15" class="node">
<title>14</title>
<path fill="none" stroke="#56d89a" stroke-width="2" d="M329.88,-180C329.88,-180 219.38,-180 219.38,-180 213.38,-180 207.38,-174 207.38,-168 207.38,-168 207.38,-156 207.38,-156 207.38,-150 213.38,-144 219.38,-144 219.38,-144 329.88,-144 329.88,-144 335.88,-144 341.88,-150 341.88,-156 341.88,-156 341.88,-168 341.88,-168 341.88,-174 335.88,-180 329.88,-180"/>
<text text-anchor="middle" x="274.62" y="-158.12" font-family="sans" font-size="10.00">generate_min_pvalue_table</text>
</g>
<!-- 2&#45;&gt;14 -->
<g id="edge20" class="edge">
<title>2&#45;&gt;14</title>
<path fill="none" stroke="grey" stroke-width="2" d="M173.69,-215.34C190.35,-206.7 210.65,-196.17 228.66,-186.84"/>
<polygon fill="grey" stroke="grey" stroke-width="2" points="230.15,-190.01 237.41,-182.3 226.92,-183.79 230.15,-190.01"/>
</g>
<!-- 15 -->
<g id="node16" class="node">
<title>15</title>
<path fill="none" stroke="#56d86b" stroke-width="2" d="M437.75,-180C437.75,-180 371.5,-180 371.5,-180 365.5,-180 359.5,-174 359.5,-168 359.5,-168 359.5,-156 359.5,-156 359.5,-150 365.5,-144 371.5,-144 371.5,-144 437.75,-144 437.75,-144 443.75,-144 449.75,-150 449.75,-156 449.75,-156 449.75,-168 449.75,-168 449.75,-174 443.75,-180 437.75,-180"/>
<text text-anchor="middle" x="404.62" y="-158.12" font-family="sans" font-size="10.00">generate_if_table</text>
</g>
<!-- 2&#45;&gt;15 -->
<g id="edge22" class="edge">
<title>2&#45;&gt;15</title>
<path fill="none" stroke="grey" stroke-width="2" d="M173.41,-225.16C212.76,-215.89 280,-199.62 346.35,-181.13"/>
<polygon fill="grey" stroke="grey" stroke-width="2" points="347.13,-184.55 355.81,-178.47 345.24,-177.81 347.13,-184.55"/>
</g>
<!-- 16 -->
<g id="node17" class="node">
<title>16</title>
<path fill="none" stroke="#70d856" stroke-width="2" d="M51.25,-108C51.25,-108 12,-108 12,-108 6,-108 0,-102 0,-96 0,-96 0,-84 0,-84 0,-78 6,-72 12,-72 12,-72 51.25,-72 51.25,-72 57.25,-72 63.25,-78 63.25,-84 63.25,-84 63.25,-96 63.25,-96 63.25,-102 57.25,-108 51.25,-108"/>
<text text-anchor="middle" x="31.62" y="-86.12" font-family="sans" font-size="10.00">sync_plots</text>
</g>
<!-- 2&#45;&gt;16 -->
<g id="edge24" class="edge">
<title>2&#45;&gt;16</title>
<path fill="none" stroke="grey" stroke-width="2" d="M111.8,-215.03C98.97,-205.73 84.27,-193.5 73.62,-180 59.6,-162.21 48.83,-138.97 41.72,-120.7"/>
<polygon fill="grey" stroke="grey" stroke-width="2" points="45.08,-119.7 38.33,-111.53 38.51,-122.13 45.08,-119.7"/>
</g>
<!-- 3 -->
<g id="node4" class="node">
<title>3</title>
<path fill="none" stroke="#d8b456" stroke-width="2" d="M166.38,-324C166.38,-324 112.88,-324 112.88,-324 106.88,-324 100.88,-318 100.88,-312 100.88,-312 100.88,-300 100.88,-300 100.88,-294 106.88,-288 112.88,-288 112.88,-288 166.38,-288 166.38,-288 172.38,-288 178.38,-294 178.38,-300 178.38,-300 178.38,-312 178.38,-312 178.38,-318 172.38,-324 166.38,-324"/>
<text text-anchor="middle" x="139.62" y="-302.12" font-family="sans" font-size="10.00">sort_and_filter</text>
</g>
<!-- 3&#45;&gt;2 -->
<g id="edge8" class="edge">
<title>3&#45;&gt;2</title>
<path fill="none" stroke="grey" stroke-width="2" d="M139.62,-287.34C139.62,-280.75 139.62,-273.08 139.62,-265.67"/>
<polygon fill="grey" stroke="grey" stroke-width="2" points="143.13,-265.93 139.63,-255.93 136.13,-265.93 143.13,-265.93"/>
</g>
<!-- 4 -->
<g id="node5" class="node">
<title>4</title>
<path fill="none" stroke="#56b1d8" stroke-width="2" d="M167.5,-396C167.5,-396 111.75,-396 111.75,-396 105.75,-396 99.75,-390 99.75,-384 99.75,-384 99.75,-372 99.75,-372 99.75,-366 105.75,-360 111.75,-360 111.75,-360 167.5,-360 167.5,-360 173.5,-360 179.5,-366 179.5,-372 179.5,-372 179.5,-384 179.5,-384 179.5,-390 173.5,-396 167.5,-396"/>
<text text-anchor="middle" x="139.62" y="-374.12" font-family="sans" font-size="10.00">execute_metal</text>
</g>
<!-- 4&#45;&gt;3 -->
<g id="edge9" class="edge">
<title>4&#45;&gt;3</title>
<path fill="none" stroke="grey" stroke-width="2" d="M139.62,-359.34C139.62,-352.75 139.62,-345.08 139.62,-337.67"/>
<polygon fill="grey" stroke="grey" stroke-width="2" points="143.13,-337.93 139.63,-327.93 136.13,-337.93 143.13,-337.93"/>
</g>
<!-- 5 -->
<g id="node6" class="node">
<title>5</title>
<path fill="none" stroke="#ced856" stroke-width="2" d="M170.12,-468C170.12,-468 109.12,-468 109.12,-468 103.12,-468 97.12,-462 97.12,-456 97.12,-456 97.12,-444 97.12,-444 97.12,-438 103.12,-432 109.12,-432 109.12,-432 170.12,-432 170.12,-432 176.12,-432 182.12,-438 182.12,-444 182.12,-444 182.12,-456 182.12,-456 182.12,-462 176.12,-468 170.12,-468"/>
<text text-anchor="middle" x="139.62" y="-451.75" font-family="sans" font-size="10.00">create_profiles</text>
<text text-anchor="middle" x="139.62" y="-440.5" font-family="sans" font-size="10.00">seqid: seq.0000</text>
</g>
<!-- 5&#45;&gt;4 -->
<g id="edge10" class="edge">
<title>5&#45;&gt;4</title>
<path fill="none" stroke="grey" stroke-width="2" d="M139.62,-431.34C139.62,-424.75 139.62,-417.08 139.62,-409.67"/>
<polygon fill="grey" stroke="grey" stroke-width="2" points="143.13,-409.93 139.63,-399.93 136.13,-409.93 143.13,-409.93"/>
</g>
<!-- 6&#45;&gt;1 -->
<g id="edge7" class="edge">
<title>6&#45;&gt;1</title>
<path fill="none" stroke="grey" stroke-width="2" d="M139.62,-143.34C139.62,-136.75 139.62,-129.08 139.62,-121.67"/>
<polygon fill="grey" stroke="grey" stroke-width="2" points="143.13,-121.93 139.63,-111.93 136.13,-121.93 143.13,-121.93"/>
</g>
<!-- 7 -->
<g id="node8" class="node">
<title>7</title>
<path fill="none" stroke="#9fd856" stroke-width="2" d="M594.5,-108C594.5,-108 514.75,-108 514.75,-108 508.75,-108 502.75,-102 502.75,-96 502.75,-96 502.75,-84 502.75,-84 502.75,-78 508.75,-72 514.75,-72 514.75,-72 594.5,-72 594.5,-72 600.5,-72 606.5,-78 606.5,-84 606.5,-84 606.5,-96 606.5,-96 606.5,-102 600.5,-108 594.5,-108"/>
<text text-anchor="middle" x="554.62" y="-86.12" font-family="sans" font-size="10.00">sync_outputs_folder</text>
</g>
<!-- 7&#45;&gt;0 -->
<g id="edge2" class="edge">
<title>7&#45;&gt;0</title>
<path fill="none" stroke="grey" stroke-width="2" d="M502,-74.67C453.45,-61.44 382.39,-42.09 338.13,-30.03"/>
<polygon fill="grey" stroke="grey" stroke-width="2" points="339.07,-26.66 328.5,-27.41 337.23,-33.42 339.07,-26.66"/>
</g>
<!-- 8 -->
<g id="node9" class="node">
<title>8</title>
<path fill="none" stroke="#5682d8" stroke-width="2" d="M498.75,-252C498.75,-252 456.5,-252 456.5,-252 450.5,-252 444.5,-246 444.5,-240 444.5,-240 444.5,-228 444.5,-228 444.5,-222 450.5,-216 456.5,-216 456.5,-216 498.75,-216 498.75,-216 504.75,-216 510.75,-222 510.75,-228 510.75,-228 510.75,-240 510.75,-240 510.75,-246 504.75,-252 498.75,-252"/>
<text text-anchor="middle" x="477.62" y="-230.12" font-family="sans" font-size="10.00">standardize</text>
</g>
<!-- 8&#45;&gt;7 -->
<g id="edge12" class="edge">
<title>8&#45;&gt;7</title>
<path fill="none" stroke="grey" stroke-width="2" d="M511.67,-230.14C543.75,-225.43 590.15,-212.98 612.62,-180 621.64,-166.78 619.08,-158.64 612.62,-144 608.16,-133.86 600.68,-124.82 592.57,-117.21"/>
<polygon fill="grey" stroke="grey" stroke-width="2" points="595.06,-114.73 585.18,-110.9 590.51,-120.06 595.06,-114.73"/>
</g>
<!-- 12 -->
<g id="node13" class="node">
<title>12</title>
<path fill="none" stroke="#d88556" stroke-width="2" d="M591.88,-180C591.88,-180 517.38,-180 517.38,-180 511.38,-180 505.38,-174 505.38,-168 505.38,-168 505.38,-156 505.38,-156 505.38,-150 511.38,-144 517.38,-144 517.38,-144 591.88,-144 591.88,-144 597.88,-144 603.88,-150 603.88,-156 603.88,-156 603.88,-168 603.88,-168 603.88,-174 597.88,-180 591.88,-180"/>
<text text-anchor="middle" x="554.62" y="-158.12" font-family="sans" font-size="10.00">filter_heterogeneity</text>
</g>
<!-- 8&#45;&gt;12 -->
<g id="edge17" class="edge">
<title>8&#45;&gt;12</title>
<path fill="none" stroke="grey" stroke-width="2" d="M497.06,-215.34C505.65,-207.52 515.95,-198.16 525.44,-189.53"/>
<polygon fill="grey" stroke="grey" stroke-width="2" points="527.65,-192.25 532.69,-182.94 522.94,-187.07 527.65,-192.25"/>
</g>
<!-- 8&#45;&gt;14 -->
<g id="edge21" class="edge">
<title>8&#45;&gt;14</title>
<path fill="none" stroke="grey" stroke-width="2" d="M443.65,-221.28C415.07,-211.43 373.44,-197.07 338.64,-185.07"/>
<polygon fill="grey" stroke="grey" stroke-width="2" points="340.1,-181.88 329.51,-181.93 337.82,-188.49 340.1,-181.88"/>
</g>
<!-- 8&#45;&gt;15 -->
<g id="edge23" class="edge">
<title>8&#45;&gt;15</title>
<path fill="none" stroke="grey" stroke-width="2" d="M459.2,-215.34C451.14,-207.6 441.5,-198.36 432.58,-189.81"/>
<polygon fill="grey" stroke="grey" stroke-width="2" points="435.12,-187.39 425.48,-183 430.27,-192.44 435.12,-187.39"/>
</g>
<!-- 17 -->
<g id="node18" class="node">
<title>17</title>
<path fill="none" stroke="#70d856" stroke-width="2" d="M425.25,-108C425.25,-108 386,-108 386,-108 380,-108 374,-102 374,-96 374,-96 374,-84 374,-84 374,-78 380,-72 386,-72 386,-72 425.25,-72 425.25,-72 431.25,-72 437.25,-78 437.25,-84 437.25,-84 437.25,-96 437.25,-96 437.25,-102 431.25,-108 425.25,-108"/>
<text text-anchor="middle" x="405.62" y="-86.12" font-family="sans" font-size="10.00">sync_plots</text>
</g>
<!-- 8&#45;&gt;17 -->
<g id="edge25" class="edge">
<title>8&#45;&gt;17</title>
<path fill="none" stroke="grey" stroke-width="2" d="M476.79,-215.26C475.26,-196.52 470.92,-166.63 458.62,-144 453.41,-134.41 445.92,-125.41 438.21,-117.65"/>
<polygon fill="grey" stroke="grey" stroke-width="2" points="440.72,-115.21 431.04,-110.91 435.93,-120.31 440.72,-115.21"/>
</g>
<!-- 9 -->
<g id="node10" class="node">
<title>9</title>
<path fill="none" stroke="#d8b456" stroke-width="2" d="M504.38,-324C504.38,-324 450.88,-324 450.88,-324 444.88,-324 438.88,-318 438.88,-312 438.88,-312 438.88,-300 438.88,-300 438.88,-294 444.88,-288 450.88,-288 450.88,-288 504.38,-288 504.38,-288 510.38,-288 516.38,-294 516.38,-300 516.38,-300 516.38,-312 516.38,-312 516.38,-318 510.38,-324 504.38,-324"/>
<text text-anchor="middle" x="477.62" y="-302.12" font-family="sans" font-size="10.00">sort_and_filter</text>
</g>
<!-- 9&#45;&gt;8 -->
<g id="edge14" class="edge">
<title>9&#45;&gt;8</title>
<path fill="none" stroke="grey" stroke-width="2" d="M477.62,-287.34C477.62,-280.75 477.62,-273.08 477.62,-265.67"/>
<polygon fill="grey" stroke="grey" stroke-width="2" points="481.13,-265.93 477.63,-255.93 474.13,-265.93 481.13,-265.93"/>
</g>
<!-- 10 -->
<g id="node11" class="node">
<title>10</title>
<path fill="none" stroke="#56b1d8" stroke-width="2" d="M505.5,-396C505.5,-396 449.75,-396 449.75,-396 443.75,-396 437.75,-390 437.75,-384 437.75,-384 437.75,-372 437.75,-372 437.75,-366 443.75,-360 449.75,-360 449.75,-360 505.5,-360 505.5,-360 511.5,-360 517.5,-366 517.5,-372 517.5,-372 517.5,-384 517.5,-384 517.5,-390 511.5,-396 505.5,-396"/>
<text text-anchor="middle" x="477.62" y="-374.12" font-family="sans" font-size="10.00">execute_metal</text>
</g>
<!-- 10&#45;&gt;9 -->
<g id="edge15" class="edge">
<title>10&#45;&gt;9</title>
<path fill="none" stroke="grey" stroke-width="2" d="M477.62,-359.34C477.62,-352.75 477.62,-345.08 477.62,-337.67"/>
<polygon fill="grey" stroke="grey" stroke-width="2" points="481.13,-337.93 477.63,-327.93 474.13,-337.93 481.13,-337.93"/>
</g>
<!-- 11 -->
<g id="node12" class="node">
<title>11</title>
<path fill="none" stroke="#ced856" stroke-width="2" d="M508.12,-468C508.12,-468 447.12,-468 447.12,-468 441.12,-468 435.12,-462 435.12,-456 435.12,-456 435.12,-444 435.12,-444 435.12,-438 441.12,-432 447.12,-432 447.12,-432 508.12,-432 508.12,-432 514.12,-432 520.12,-438 520.12,-444 520.12,-444 520.12,-456 520.12,-456 520.12,-462 514.12,-468 508.12,-468"/>
<text text-anchor="middle" x="477.62" y="-451.75" font-family="sans" font-size="10.00">create_profiles</text>
<text text-anchor="middle" x="477.62" y="-440.5" font-family="sans" font-size="10.00">seqid: seq.0001</text>
</g>
<!-- 11&#45;&gt;10 -->
<g id="edge16" class="edge">
<title>11&#45;&gt;10</title>
<path fill="none" stroke="grey" stroke-width="2" d="M477.62,-431.34C477.62,-424.75 477.62,-417.08 477.62,-409.67"/>
<polygon fill="grey" stroke="grey" stroke-width="2" points="481.13,-409.93 477.63,-399.93 474.13,-409.93 481.13,-409.93"/>
</g>
<!-- 12&#45;&gt;7 -->
<g id="edge13" class="edge">
<title>12&#45;&gt;7</title>
<path fill="none" stroke="grey" stroke-width="2" d="M554.62,-143.34C554.62,-136.75 554.62,-129.08 554.62,-121.67"/>
<polygon fill="grey" stroke="grey" stroke-width="2" points="558.13,-121.93 554.63,-111.93 551.13,-121.93 558.13,-121.93"/>
</g>
<!-- 13 -->
<g id="node14" class="node">
<title>13</title>
<path fill="none" stroke="#d85656" stroke-width="2" d="M319.88,-108C319.88,-108 275.38,-108 275.38,-108 269.38,-108 263.38,-102 263.38,-96 263.38,-96 263.38,-84 263.38,-84 263.38,-78 269.38,-72 275.38,-72 275.38,-72 319.88,-72 319.88,-72 325.88,-72 331.88,-78 331.88,-84 331.88,-84 331.88,-96 331.88,-96 331.88,-102 325.88,-108 319.88,-108"/>
<text text-anchor="middle" x="297.62" y="-86.12" font-family="sans" font-size="10.00">sync_tables</text>
</g>
<!-- 13&#45;&gt;0 -->
<g id="edge3" class="edge">
<title>13&#45;&gt;0</title>
<path fill="none" stroke="grey" stroke-width="2" d="M297.62,-71.34C297.62,-64.75 297.62,-57.08 297.62,-49.67"/>
<polygon fill="grey" stroke="grey" stroke-width="2" points="301.13,-49.93 297.63,-39.93 294.13,-49.93 301.13,-49.93"/>
</g>
<!-- 14&#45;&gt;13 -->
<g id="edge18" class="edge">
<title>14&#45;&gt;13</title>
<path fill="none" stroke="grey" stroke-width="2" d="M280.43,-143.34C282.65,-136.59 285.24,-128.69 287.73,-121.11"/>
<polygon fill="grey" stroke="grey" stroke-width="2" points="291,-122.37 290.8,-111.78 284.35,-120.19 291,-122.37"/>
</g>
<!-- 15&#45;&gt;13 -->
<g id="edge19" class="edge">
<title>15&#45;&gt;13</title>
<path fill="none" stroke="grey" stroke-width="2" d="M377.35,-143.15C364.64,-134.84 349.32,-124.82 335.52,-115.79"/>
<polygon fill="grey" stroke="grey" stroke-width="2" points="337.67,-113.02 327.39,-110.47 333.84,-118.87 337.67,-113.02"/>
</g>
<!-- 16&#45;&gt;0 -->
<g id="edge4" class="edge">
<title>16&#45;&gt;0</title>
<path fill="none" stroke="grey" stroke-width="2" d="M64.09,-76.74C68.93,-75.06 73.89,-73.42 78.62,-72 140.2,-53.47 213,-36.89 257.22,-27.39"/>
<polygon fill="grey" stroke="grey" stroke-width="2" points="257.69,-30.86 266.75,-25.36 256.24,-24.02 257.69,-30.86"/>
</g>
<!-- 17&#45;&gt;0 -->
<g id="edge5" class="edge">
<title>17&#45;&gt;0</title>
<path fill="none" stroke="grey" stroke-width="2" d="M378.09,-71.15C365.27,-62.84 349.81,-52.82 335.87,-43.79"/>
<polygon fill="grey" stroke="grey" stroke-width="2" points="337.94,-40.96 327.65,-38.46 334.14,-46.83 337.94,-40.96"/>
</g>
</g>
</svg>
