<?xml version="1.0" encoding="UTF-8" standalone="no"?>
<!DOCTYPE svg PUBLIC "-//W3C//DTD SVG 1.1//EN"
 "http://www.w3.org/Graphics/SVG/1.1/DTD/svg11.dtd">
<!-- Generated by graphviz version 10.0.1 (20240210.2158)
 -->
<!-- Title: snakemake_dag Pages: 1 -->
<svg width="780pt" height="476pt"
 viewBox="0.00 0.00 780.16 476.00" xmlns="http://www.w3.org/2000/svg" xmlns:xlink="http://www.w3.org/1999/xlink">
<g id="graph0" class="graph" transform="scale(1 1) rotate(0) translate(4 472)">
<title>snakemake_dag</title>
<polygon fill="white" stroke="none" points="-4,4 -4,-472 776.16,-472 776.16,4 -4,4"/>
<!-- 0 -->
<g id="node1" class="node">
<title>0</title>
<path fill="none" stroke="#afd856" stroke-width="2" d="M394.91,-36C394.91,-36 364.91,-36 364.91,-36 358.91,-36 352.91,-30 352.91,-24 352.91,-24 352.91,-12 352.91,-12 352.91,-6 358.91,0 364.91,0 364.91,0 394.91,0 394.91,0 400.91,0 406.91,-6 406.91,-12 406.91,-12 406.91,-24 406.91,-24 406.91,-30 400.91,-36 394.91,-36"/>
<text text-anchor="middle" x="379.91" y="-14.12" font-family="sans" font-size="10.00">all</text>
</g>
<!-- 1 -->
<g id="node2" class="node">
<title>1</title>
<path fill="none" stroke="#56d8a9" stroke-width="2" d="M160.79,-108C160.79,-108 81.04,-108 81.04,-108 75.04,-108 69.04,-102 69.04,-96 69.04,-96 69.04,-84 69.04,-84 69.04,-78 75.04,-72 81.04,-72 81.04,-72 160.79,-72 160.79,-72 166.79,-72 172.79,-78 172.79,-84 172.79,-84 172.79,-96 172.79,-96 172.79,-102 166.79,-108 160.79,-108"/>
<text text-anchor="middle" x="120.91" y="-86.12" font-family="sans" font-size="10.00">sync_outputs_folder</text>
</g>
<!-- 1&#45;&gt;0 -->
<g id="edge1" class="edge">
<title>1&#45;&gt;0</title>
<path fill="none" stroke="grey" stroke-width="2" d="M173.64,-74.75C222.77,-61.47 294.99,-41.95 339.65,-29.88"/>
<polygon fill="grey" stroke="grey" stroke-width="2" points="340.35,-33.32 349.1,-27.33 338.53,-26.56 340.35,-33.32"/>
</g>
<!-- 2 -->
<g id="node3" class="node">
<title>2</title>
<path fill="none" stroke="#56d882" stroke-width="2" d="M216.04,-252C216.04,-252 173.79,-252 173.79,-252 167.79,-252 161.79,-246 161.79,-240 161.79,-240 161.79,-228 161.79,-228 161.79,-222 167.79,-216 173.79,-216 173.79,-216 216.04,-216 216.04,-216 222.04,-216 228.04,-222 228.04,-228 228.04,-228 228.04,-240 228.04,-240 228.04,-246 222.04,-252 216.04,-252"/>
<text text-anchor="middle" x="194.91" y="-230.12" font-family="sans" font-size="10.00">standardize</text>
</g>
<!-- 2&#45;&gt;1 -->
<g id="edge6" class="edge">
<title>2&#45;&gt;1</title>
<path fill="none" stroke="grey" stroke-width="2" d="M161.14,-228.38C112.23,-220.92 25.49,-204.54 6.91,-180 -2.74,-167.24 -1.69,-157.49 6.91,-144 18.14,-126.41 36.88,-114.56 55.96,-106.63"/>
<polygon fill="grey" stroke="grey" stroke-width="2" points="57.17,-109.91 65.3,-103.13 54.71,-103.35 57.17,-109.91"/>
</g>
<!-- 6 -->
<g id="node7" class="node">
<title>6</title>
<path fill="none" stroke="#56a9d8" stroke-width="2" d="M102.16,-180C102.16,-180 27.66,-180 27.66,-180 21.66,-180 15.66,-174 15.66,-168 15.66,-168 15.66,-156 15.66,-156 15.66,-150 21.66,-144 27.66,-144 27.66,-144 102.16,-144 102.16,-144 108.16,-144 114.16,-150 114.16,-156 114.16,-156 114.16,-168 114.16,-168 114.16,-174 108.16,-180 102.16,-180"/>
<text text-anchor="middle" x="64.91" y="-158.12" font-family="sans" font-size="10.00">filter_heterogeneity</text>
</g>
<!-- 2&#45;&gt;6 -->
<g id="edge12" class="edge">
<title>2&#45;&gt;6</title>
<path fill="none" stroke="grey" stroke-width="2" d="M161.77,-215.15C145.88,-206.6 126.61,-196.22 109.46,-186.99"/>
<polygon fill="grey" stroke="grey" stroke-width="2" points="111.12,-183.91 100.66,-182.25 107.81,-190.07 111.12,-183.91"/>
</g>
<!-- 7 -->
<g id="node8" class="node">
<title>7</title>
<path fill="none" stroke="#d6d856" stroke-width="2" d="M185.66,-180C185.66,-180 144.16,-180 144.16,-180 138.16,-180 132.16,-174 132.16,-168 132.16,-168 132.16,-156 132.16,-156 132.16,-150 138.16,-144 144.16,-144 144.16,-144 185.66,-144 185.66,-144 191.66,-144 197.66,-150 197.66,-156 197.66,-156 197.66,-168 197.66,-168 197.66,-174 191.66,-180 185.66,-180"/>
<text text-anchor="middle" x="164.91" y="-158.12" font-family="sans" font-size="10.00">bgzip_tabix</text>
</g>
<!-- 2&#45;&gt;7 -->
<g id="edge13" class="edge">
<title>2&#45;&gt;7</title>
<path fill="none" stroke="grey" stroke-width="2" d="M187.34,-215.34C184.42,-208.51 180.99,-200.5 177.7,-192.83"/>
<polygon fill="grey" stroke="grey" stroke-width="2" points="180.93,-191.5 173.78,-183.68 174.5,-194.25 180.93,-191.5"/>
</g>
<!-- 16 -->
<g id="node17" class="node">
<title>16</title>
<path fill="none" stroke="#59d856" stroke-width="2" d="M484.16,-180C484.16,-180 373.66,-180 373.66,-180 367.66,-180 361.66,-174 361.66,-168 361.66,-168 361.66,-156 361.66,-156 361.66,-150 367.66,-144 373.66,-144 373.66,-144 484.16,-144 484.16,-144 490.16,-144 496.16,-150 496.16,-156 496.16,-156 496.16,-168 496.16,-168 496.16,-174 490.16,-180 484.16,-180"/>
<text text-anchor="middle" x="428.91" y="-158.12" font-family="sans" font-size="10.00">generate_min_pvalue_table</text>
</g>
<!-- 2&#45;&gt;16 -->
<g id="edge24" class="edge">
<title>2&#45;&gt;16</title>
<path fill="none" stroke="grey" stroke-width="2" d="M228.94,-222.82C262.28,-212.85 314.14,-197.33 356.7,-184.6"/>
<polygon fill="grey" stroke="grey" stroke-width="2" points="357.52,-188.01 366.1,-181.79 355.52,-181.3 357.52,-188.01"/>
</g>
<!-- 17 -->
<g id="node18" class="node">
<title>17</title>
<path fill="none" stroke="#5682d8" stroke-width="2" d="M332.04,-180C332.04,-180 265.79,-180 265.79,-180 259.79,-180 253.79,-174 253.79,-168 253.79,-168 253.79,-156 253.79,-156 253.79,-150 259.79,-144 265.79,-144 265.79,-144 332.04,-144 332.04,-144 338.04,-144 344.04,-150 344.04,-156 344.04,-156 344.04,-168 344.04,-168 344.04,-174 338.04,-180 332.04,-180"/>
<text text-anchor="middle" x="298.91" y="-158.12" font-family="sans" font-size="10.00">generate_if_table</text>
</g>
<!-- 2&#45;&gt;17 -->
<g id="edge26" class="edge">
<title>2&#45;&gt;17</title>
<path fill="none" stroke="grey" stroke-width="2" d="M221.43,-215.15C233.65,-206.93 248.37,-197.02 261.68,-188.06"/>
<polygon fill="grey" stroke="grey" stroke-width="2" points="263.6,-190.99 269.94,-182.5 259.69,-185.18 263.6,-190.99"/>
</g>
<!-- 18 -->
<g id="node19" class="node">
<title>18</title>
<path fill="none" stroke="#d85656" stroke-width="2" d="M271.54,-108C271.54,-108 232.29,-108 232.29,-108 226.29,-108 220.29,-102 220.29,-96 220.29,-96 220.29,-84 220.29,-84 220.29,-78 226.29,-72 232.29,-72 232.29,-72 271.54,-72 271.54,-72 277.54,-72 283.54,-78 283.54,-84 283.54,-84 283.54,-96 283.54,-96 283.54,-102 277.54,-108 271.54,-108"/>
<text text-anchor="middle" x="251.91" y="-86.12" font-family="sans" font-size="10.00">sync_plots</text>
</g>
<!-- 2&#45;&gt;18 -->
<g id="edge28" class="edge">
<title>2&#45;&gt;18</title>
<path fill="none" stroke="grey" stroke-width="2" d="M202.13,-215.02C211.64,-191.33 228.49,-149.35 239.93,-120.86"/>
<polygon fill="grey" stroke="grey" stroke-width="2" points="243.15,-122.23 243.63,-111.65 236.65,-119.62 243.15,-122.23"/>
</g>
<!-- 3 -->
<g id="node4" class="node">
<title>3</title>
<path fill="none" stroke="#80d856" stroke-width="2" d="M221.66,-324C221.66,-324 168.16,-324 168.16,-324 162.16,-324 156.16,-318 156.16,-312 156.16,-312 156.16,-300 156.16,-300 156.16,-294 162.16,-288 168.16,-288 168.16,-288 221.66,-288 221.66,-288 227.66,-288 233.66,-294 233.66,-300 233.66,-300 233.66,-312 233.66,-312 233.66,-318 227.66,-324 221.66,-324"/>
<text text-anchor="middle" x="194.91" y="-302.12" font-family="sans" font-size="10.00">sort_and_filter</text>
</g>
<!-- 3&#45;&gt;2 -->
<g id="edge9" class="edge">
<title>3&#45;&gt;2</title>
<path fill="none" stroke="grey" stroke-width="2" d="M194.91,-287.34C194.91,-280.75 194.91,-273.08 194.91,-265.67"/>
<polygon fill="grey" stroke="grey" stroke-width="2" points="198.41,-265.93 194.91,-255.93 191.41,-265.93 198.41,-265.93"/>
</g>
<!-- 4 -->
<g id="node5" class="node">
<title>4</title>
<path fill="none" stroke="#d8ac56" stroke-width="2" d="M222.79,-396C222.79,-396 167.04,-396 167.04,-396 161.04,-396 155.04,-390 155.04,-384 155.04,-384 155.04,-372 155.04,-372 155.04,-366 161.04,-360 167.04,-360 167.04,-360 222.79,-360 222.79,-360 228.79,-360 234.79,-366 234.79,-372 234.79,-372 234.79,-384 234.79,-384 234.79,-390 228.79,-396 222.79,-396"/>
<text text-anchor="middle" x="194.91" y="-374.12" font-family="sans" font-size="10.00">execute_metal</text>
</g>
<!-- 4&#45;&gt;3 -->
<g id="edge10" class="edge">
<title>4&#45;&gt;3</title>
<path fill="none" stroke="grey" stroke-width="2" d="M194.91,-359.34C194.91,-352.75 194.91,-345.08 194.91,-337.67"/>
<polygon fill="grey" stroke="grey" stroke-width="2" points="198.41,-337.93 194.91,-327.93 191.41,-337.93 198.41,-337.93"/>
</g>
<!-- 5 -->
<g id="node6" class="node">
<title>5</title>
<path fill="none" stroke="#56d8d8" stroke-width="2" d="M225.41,-468C225.41,-468 164.41,-468 164.41,-468 158.41,-468 152.41,-462 152.41,-456 152.41,-456 152.41,-444 152.41,-444 152.41,-438 158.41,-432 164.41,-432 164.41,-432 225.41,-432 225.41,-432 231.41,-432 237.41,-438 237.41,-444 237.41,-444 237.41,-456 237.41,-456 237.41,-462 231.41,-468 225.41,-468"/>
<text text-anchor="middle" x="194.91" y="-451.75" font-family="sans" font-size="10.00">create_profiles</text>
<text text-anchor="middle" x="194.91" y="-440.5" font-family="sans" font-size="10.00">seqid: seq.0000</text>
</g>
<!-- 5&#45;&gt;4 -->
<g id="edge11" class="edge">
<title>5&#45;&gt;4</title>
<path fill="none" stroke="grey" stroke-width="2" d="M194.91,-431.34C194.91,-424.75 194.91,-417.08 194.91,-409.67"/>
<polygon fill="grey" stroke="grey" stroke-width="2" points="198.41,-409.93 194.91,-399.93 191.41,-409.93 198.41,-409.93"/>
</g>
<!-- 6&#45;&gt;1 -->
<g id="edge7" class="edge">
<title>6&#45;&gt;1</title>
<path fill="none" stroke="grey" stroke-width="2" d="M79.05,-143.34C84.97,-135.93 92,-127.14 98.59,-118.9"/>
<polygon fill="grey" stroke="grey" stroke-width="2" points="101.19,-121.26 104.7,-111.27 95.72,-116.89 101.19,-121.26"/>
</g>
<!-- 7&#45;&gt;1 -->
<g id="edge8" class="edge">
<title>7&#45;&gt;1</title>
<path fill="none" stroke="grey" stroke-width="2" d="M153.81,-143.34C149.31,-136.18 144,-127.73 138.97,-119.73"/>
<polygon fill="grey" stroke="grey" stroke-width="2" points="142.06,-118.07 133.78,-111.46 136.14,-121.79 142.06,-118.07"/>
</g>
<!-- 8 -->
<g id="node9" class="node">
<title>8</title>
<path fill="none" stroke="#56d8a9" stroke-width="2" d="M654.79,-108C654.79,-108 575.04,-108 575.04,-108 569.04,-108 563.04,-102 563.04,-96 563.04,-96 563.04,-84 563.04,-84 563.04,-78 569.04,-72 575.04,-72 575.04,-72 654.79,-72 654.79,-72 660.79,-72 666.79,-78 666.79,-84 666.79,-84 666.79,-96 666.79,-96 666.79,-102 660.79,-108 654.79,-108"/>
<text text-anchor="middle" x="614.91" y="-86.12" font-family="sans" font-size="10.00">sync_outputs_folder</text>
</g>
<!-- 8&#45;&gt;0 -->
<g id="edge2" class="edge">
<title>8&#45;&gt;0</title>
<path fill="none" stroke="grey" stroke-width="2" d="M562.18,-73.29C519.26,-60.51 459.58,-42.73 420.37,-31.05"/>
<polygon fill="grey" stroke="grey" stroke-width="2" points="421.39,-27.7 410.81,-28.2 419.39,-34.41 421.39,-27.7"/>
</g>
<!-- 9 -->
<g id="node10" class="node">
<title>9</title>
<path fill="none" stroke="#56d882" stroke-width="2" d="M575.04,-252C575.04,-252 532.79,-252 532.79,-252 526.79,-252 520.79,-246 520.79,-240 520.79,-240 520.79,-228 520.79,-228 520.79,-222 526.79,-216 532.79,-216 532.79,-216 575.04,-216 575.04,-216 581.04,-216 587.04,-222 587.04,-228 587.04,-228 587.04,-240 587.04,-240 587.04,-246 581.04,-252 575.04,-252"/>
<text text-anchor="middle" x="553.91" y="-230.12" font-family="sans" font-size="10.00">standardize</text>
</g>
<!-- 9&#45;&gt;8 -->
<g id="edge14" class="edge">
<title>9&#45;&gt;8</title>
<path fill="none" stroke="grey" stroke-width="2" d="M587.75,-217.53C602.63,-208.8 618.59,-196.33 626.91,-180 636.2,-161.78 632.82,-138.87 627.32,-120.85"/>
<polygon fill="grey" stroke="grey" stroke-width="2" points="630.69,-119.88 624.08,-111.6 624.08,-122.19 630.69,-119.88"/>
</g>
<!-- 13 -->
<g id="node14" class="node">
<title>13</title>
<path fill="none" stroke="#56a9d8" stroke-width="2" d="M760.16,-180C760.16,-180 685.66,-180 685.66,-180 679.66,-180 673.66,-174 673.66,-168 673.66,-168 673.66,-156 673.66,-156 673.66,-150 679.66,-144 685.66,-144 685.66,-144 760.16,-144 760.16,-144 766.16,-144 772.16,-150 772.16,-156 772.16,-156 772.16,-168 772.16,-168 772.16,-174 766.16,-180 760.16,-180"/>
<text text-anchor="middle" x="722.91" y="-158.12" font-family="sans" font-size="10.00">filter_heterogeneity</text>
</g>
<!-- 9&#45;&gt;13 -->
<g id="edge20" class="edge">
<title>9&#45;&gt;13</title>
<path fill="none" stroke="grey" stroke-width="2" d="M587.71,-219C610.6,-209.52 641.36,-196.78 667.76,-185.85"/>
<polygon fill="grey" stroke="grey" stroke-width="2" points="668.84,-189.19 676.74,-182.12 666.16,-182.72 668.84,-189.19"/>
</g>
<!-- 14 -->
<g id="node15" class="node">
<title>14</title>
<path fill="none" stroke="#d6d856" stroke-width="2" d="M605.66,-180C605.66,-180 564.16,-180 564.16,-180 558.16,-180 552.16,-174 552.16,-168 552.16,-168 552.16,-156 552.16,-156 552.16,-150 558.16,-144 564.16,-144 564.16,-144 605.66,-144 605.66,-144 611.66,-144 617.66,-150 617.66,-156 617.66,-156 617.66,-168 617.66,-168 617.66,-174 611.66,-180 605.66,-180"/>
<text text-anchor="middle" x="584.91" y="-158.12" font-family="sans" font-size="10.00">bgzip_tabix</text>
</g>
<!-- 9&#45;&gt;14 -->
<g id="edge21" class="edge">
<title>9&#45;&gt;14</title>
<path fill="none" stroke="grey" stroke-width="2" d="M561.74,-215.34C564.8,-208.43 568.39,-200.31 571.82,-192.56"/>
<polygon fill="grey" stroke="grey" stroke-width="2" points="574.91,-194.23 575.76,-183.67 568.51,-191.4 574.91,-194.23"/>
</g>
<!-- 9&#45;&gt;16 -->
<g id="edge25" class="edge">
<title>9&#45;&gt;16</title>
<path fill="none" stroke="grey" stroke-width="2" d="M522.05,-215.15C506.77,-206.6 488.24,-196.22 471.75,-186.99"/>
<polygon fill="grey" stroke="grey" stroke-width="2" points="473.8,-184.12 463.36,-182.29 470.38,-190.23 473.8,-184.12"/>
</g>
<!-- 9&#45;&gt;17 -->
<g id="edge27" class="edge">
<title>9&#45;&gt;17</title>
<path fill="none" stroke="grey" stroke-width="2" d="M519.99,-224.58C482.43,-215.13 419.79,-199.06 357.31,-181.21"/>
<polygon fill="grey" stroke="grey" stroke-width="2" points="358.31,-177.85 347.74,-178.45 356.38,-184.58 358.31,-177.85"/>
</g>
<!-- 19 -->
<g id="node20" class="node">
<title>19</title>
<path fill="none" stroke="#d85656" stroke-width="2" d="M510.54,-108C510.54,-108 471.29,-108 471.29,-108 465.29,-108 459.29,-102 459.29,-96 459.29,-96 459.29,-84 459.29,-84 459.29,-78 465.29,-72 471.29,-72 471.29,-72 510.54,-72 510.54,-72 516.54,-72 522.54,-78 522.54,-84 522.54,-84 522.54,-96 522.54,-96 522.54,-102 516.54,-108 510.54,-108"/>
<text text-anchor="middle" x="490.91" y="-86.12" font-family="sans" font-size="10.00">sync_plots</text>
</g>
<!-- 9&#45;&gt;19 -->
<g id="edge29" class="edge">
<title>9&#45;&gt;19</title>
<path fill="none" stroke="grey" stroke-width="2" d="M545.94,-215.02C535.38,-191.22 516.63,-148.97 503.99,-120.48"/>
<polygon fill="grey" stroke="grey" stroke-width="2" points="507.31,-119.33 500.06,-111.61 500.91,-122.17 507.31,-119.33"/>
</g>
<!-- 10 -->
<g id="node11" class="node">
<title>10</title>
<path fill="none" stroke="#80d856" stroke-width="2" d="M580.66,-324C580.66,-324 527.16,-324 527.16,-324 521.16,-324 515.16,-318 515.16,-312 515.16,-312 515.16,-300 515.16,-300 515.16,-294 521.16,-288 527.16,-288 527.16,-288 580.66,-288 580.66,-288 586.66,-288 592.66,-294 592.66,-300 592.66,-300 592.66,-312 592.66,-312 592.66,-318 586.66,-324 580.66,-324"/>
<text text-anchor="middle" x="553.91" y="-302.12" font-family="sans" font-size="10.00">sort_and_filter</text>
</g>
<!-- 10&#45;&gt;9 -->
<g id="edge17" class="edge">
<title>10&#45;&gt;9</title>
<path fill="none" stroke="grey" stroke-width="2" d="M553.91,-287.34C553.91,-280.75 553.91,-273.08 553.91,-265.67"/>
<polygon fill="grey" stroke="grey" stroke-width="2" points="557.41,-265.93 553.91,-255.93 550.41,-265.93 557.41,-265.93"/>
</g>
<!-- 11 -->
<g id="node12" class="node">
<title>11</title>
<path fill="none" stroke="#d8ac56" stroke-width="2" d="M581.79,-396C581.79,-396 526.04,-396 526.04,-396 520.04,-396 514.04,-390 514.04,-384 514.04,-384 514.04,-372 514.04,-372 514.04,-366 520.04,-360 526.04,-360 526.04,-360 581.79,-360 581.79,-360 587.79,-360 593.79,-366 593.79,-372 593.79,-372 593.79,-384 593.79,-384 593.79,-390 587.79,-396 581.79,-396"/>
<text text-anchor="middle" x="553.91" y="-374.12" font-family="sans" font-size="10.00">execute_metal</text>
</g>
<!-- 11&#45;&gt;10 -->
<g id="edge18" class="edge">
<title>11&#45;&gt;10</title>
<path fill="none" stroke="grey" stroke-width="2" d="M553.91,-359.34C553.91,-352.75 553.91,-345.08 553.91,-337.67"/>
<polygon fill="grey" stroke="grey" stroke-width="2" points="557.41,-337.93 553.91,-327.93 550.41,-337.93 557.41,-337.93"/>
</g>
<!-- 12 -->
<g id="node13" class="node">
<title>12</title>
<path fill="none" stroke="#56d8d8" stroke-width="2" d="M584.41,-468C584.41,-468 523.41,-468 523.41,-468 517.41,-468 511.41,-462 511.41,-456 511.41,-456 511.41,-444 511.41,-444 511.41,-438 517.41,-432 523.41,-432 523.41,-432 584.41,-432 584.41,-432 590.41,-432 596.41,-438 596.41,-444 596.41,-444 596.41,-456 596.41,-456 596.41,-462 590.41,-468 584.41,-468"/>
<text text-anchor="middle" x="553.91" y="-451.75" font-family="sans" font-size="10.00">create_profiles</text>
<text text-anchor="middle" x="553.91" y="-440.5" font-family="sans" font-size="10.00">seqid: seq.0001</text>
</g>
<!-- 12&#45;&gt;11 -->
<g id="edge19" class="edge">
<title>12&#45;&gt;11</title>
<path fill="none" stroke="grey" stroke-width="2" d="M553.91,-431.34C553.91,-424.75 553.91,-417.08 553.91,-409.67"/>
<polygon fill="grey" stroke="grey" stroke-width="2" points="557.41,-409.93 553.91,-399.93 550.41,-409.93 557.41,-409.93"/>
</g>
<!-- 13&#45;&gt;8 -->
<g id="edge15" class="edge">
<title>13&#45;&gt;8</title>
<path fill="none" stroke="grey" stroke-width="2" d="M695.38,-143.15C682.56,-134.84 667.09,-124.82 653.16,-115.79"/>
<polygon fill="grey" stroke="grey" stroke-width="2" points="655.23,-112.96 644.94,-110.46 651.42,-118.83 655.23,-112.96"/>
</g>
<!-- 14&#45;&gt;8 -->
<g id="edge16" class="edge">
<title>14&#45;&gt;8</title>
<path fill="none" stroke="grey" stroke-width="2" d="M592.48,-143.34C595.41,-136.51 598.84,-128.5 602.13,-120.83"/>
<polygon fill="grey" stroke="grey" stroke-width="2" points="605.33,-122.25 606.05,-111.68 598.89,-119.5 605.33,-122.25"/>
</g>
<!-- 15 -->
<g id="node16" class="node">
<title>15</title>
<path fill="none" stroke="#d88556" stroke-width="2" d="M402.16,-108C402.16,-108 357.66,-108 357.66,-108 351.66,-108 345.66,-102 345.66,-96 345.66,-96 345.66,-84 345.66,-84 345.66,-78 351.66,-72 357.66,-72 357.66,-72 402.16,-72 402.16,-72 408.16,-72 414.16,-78 414.16,-84 414.16,-84 414.16,-96 414.16,-96 414.16,-102 408.16,-108 402.16,-108"/>
<text text-anchor="middle" x="379.91" y="-86.12" font-family="sans" font-size="10.00">sync_tables</text>
</g>
<!-- 15&#45;&gt;0 -->
<g id="edge3" class="edge">
<title>15&#45;&gt;0</title>
<path fill="none" stroke="grey" stroke-width="2" d="M379.91,-71.34C379.91,-64.75 379.91,-57.08 379.91,-49.67"/>
<polygon fill="grey" stroke="grey" stroke-width="2" points="383.41,-49.93 379.91,-39.93 376.41,-49.93 383.41,-49.93"/>
</g>
<!-- 16&#45;&gt;15 -->
<g id="edge22" class="edge">
<title>16&#45;&gt;15</title>
<path fill="none" stroke="grey" stroke-width="2" d="M416.55,-143.34C411.48,-136.1 405.49,-127.53 399.83,-119.45"/>
<polygon fill="grey" stroke="grey" stroke-width="2" points="402.78,-117.57 394.18,-111.38 397.05,-121.58 402.78,-117.57"/>
</g>
<!-- 17&#45;&gt;15 -->
<g id="edge23" class="edge">
<title>17&#45;&gt;15</title>
<path fill="none" stroke="grey" stroke-width="2" d="M319.35,-143.34C328.49,-135.44 339.45,-125.96 349.53,-117.26"/>
<polygon fill="grey" stroke="grey" stroke-width="2" points="351.63,-120.07 356.91,-110.88 347.05,-114.77 351.63,-120.07"/>
</g>
<!-- 18&#45;&gt;0 -->
<g id="edge4" class="edge">
<title>18&#45;&gt;0</title>
<path fill="none" stroke="grey" stroke-width="2" d="M284.21,-71.34C301.35,-61.97 322.53,-50.38 340.61,-40.49"/>
<polygon fill="grey" stroke="grey" stroke-width="2" points="342.22,-43.6 349.32,-35.73 338.86,-37.46 342.22,-43.6"/>
</g>
<!-- 19&#45;&gt;0 -->
<g id="edge5" class="edge">
<title>19&#45;&gt;0</title>
<path fill="none" stroke="grey" stroke-width="2" d="M462.62,-71.15C449.21,-62.7 432.98,-52.47 418.47,-43.31"/>
<polygon fill="grey" stroke="grey" stroke-width="2" points="420.66,-40.56 410.34,-38.18 416.93,-46.48 420.66,-40.56"/>
</g>
</g>
</svg>
